Interstate-Black_Italic.ufo
<glyph name="exclam" format="1">
  <advance width="350"/>
  <unicode hex="0021"/>
  <outline>
    <contour>
      <point x="307" y="450" type="line"/>
      <point x="239" y="250" type="line"/>
      <point x="107" y="250" type="line"/>
      <point x="109" y="450" type="line"/>
      <point x="153" y="700" type="line"/>
      <point x="351" y="700" type="line"/>
    </contour>
    <contour>
      <point x="247" y="93" type="curve" smooth="yes"/>
      <point x="247" y="34"/>
      <point x="203" y="-11"/>
      <point x="143" y="-11" type="curve" smooth="yes"/>
      <point x="83" y="-11"/>
      <point x="39" y="34"/>
      <point x="39" y="93" type="curve" smooth="yes"/>
      <point x="39" y="152"/>
      <point x="83" y="195"/>
      <point x="143" y="195" type="curve" smooth="yes"/>
      <point x="203" y="195"/>
      <point x="247" y="152"/>
    </contour>
  </outline>
</glyph>
<glyph name="quotedbl" format="1">
  <advance width="620"/>
  <unicode hex="0022"/>
  <outline>
    <contour>
      <point x="640" y="700" type="line"/>
      <point x="543" y="373" type="line"/>
      <point x="408" y="373" type="line"/>
      <point x="427" y="700" type="line"/>
    </contour>
    <contour>
      <point x="347" y="700" type="line"/>
      <point x="250" y="373" type="line"/>
      <point x="115" y="373" type="line"/>
      <point x="134" y="700" type="line"/>
    </contour>
  </outline>
</glyph>
<glyph name="numbersign" format="1">
  <advance width="796"/>
  <unicode hex="0023"/>
  <outline>
    <contour>
      <point x="721" y="122" type="line"/>
      <point x="616" y="122" type="line"/>
      <point x="594" y="0" type="line"/>
      <point x="412" y="0" type="line"/>
      <point x="434" y="122" type="line"/>
      <point x="312" y="122" type="line"/>
      <point x="290" y="0" type="line"/>
      <point x="108" y="0" type="line"/>
      <point x="130" y="122" type="line"/>
      <point x="25" y="122" type="line"/>
      <point x="52" y="275" type="line"/>
      <point x="157" y="275" type="line"/>
      <point x="183" y="425" type="line"/>
      <point x="78" y="425" type="line"/>
      <point x="105" y="578" type="line"/>
      <point x="210" y="578" type="line"/>
      <point x="232" y="700" type="line"/>
      <point x="414" y="700" type="line"/>
      <point x="392" y="578" type="line"/>
      <point x="514" y="578" type="line"/>
      <point x="536" y="700" type="line"/>
      <point x="718" y="700" type="line"/>
      <point x="696" y="578" type="line"/>
      <point x="801" y="578" type="line"/>
      <point x="774" y="425" type="line"/>
      <point x="669" y="425" type="line"/>
      <point x="643" y="275" type="line"/>
      <point x="748" y="275" type="line"/>
    </contour>
    <contour>
      <point x="469" y="262" type="line"/>
      <point x="501" y="438" type="line"/>
      <point x="357" y="438" type="line"/>
      <point x="325" y="262" type="line"/>
    </contour>
  </outline>
</glyph>
<glyph name="dollar" format="1">
  <advance width="657"/>
  <unicode hex="0024"/>
  <outline>
    <contour>
      <point x="317" y="701" type="curve"/>
      <point x="334" y="800" type="line"/>
      <point x="522" y="800" type="line"/>
      <point x="502" y="690" type="line"/>
      <point x="569" y="673"/>
      <point x="623" y="644"/>
      <point x="670" y="603" type="curve"/>
      <point x="550" y="464" type="line"/>
      <point x="502" y="503"/>
      <point x="436" y="544"/>
      <point x="352" y="544" type="curve" smooth="yes"/>
      <point x="313" y="544"/>
      <point x="292" y="528"/>
      <point x="292" y="502" type="curve" smooth="yes"/>
      <point x="292" y="477"/>
      <point x="311" y="466"/>
      <point x="394" y="439" type="curve" smooth="yes"/>
      <point x="562" y="384"/>
      <point x="610" y="321"/>
      <point x="610" y="233" type="curve" smooth="yes"/>
      <point x="610" y="91"/>
      <point x="521" y="15"/>
      <point x="380" y="-1" type="curve"/>
      <point x="363" y="-100" type="line"/>
      <point x="175" y="-100" type="line"/>
      <point x="195" y="10" type="line"/>
      <point x="126" y="28"/>
      <point x="60" y="59"/>
      <point x="2" y="103" type="curve"/>
      <point x="122" y="242" type="line"/>
      <point x="205" y="178"/>
      <point x="284" y="156"/>
      <point x="344" y="156" type="curve" smooth="yes"/>
      <point x="383" y="156"/>
      <point x="410" y="169"/>
      <point x="410" y="200" type="curve" smooth="yes"/>
      <point x="410" y="224"/>
      <point x="393" y="240"/>
      <point x="304" y="268" type="curve" smooth="yes"/>
      <point x="145" y="318"/>
      <point x="91" y="375"/>
      <point x="91" y="471" type="curve" smooth="yes"/>
      <point x="91" y="609"/>
      <point x="194" y="687"/>
    </contour>
  </outline>
</glyph>
<glyph name="ampersand" format="1">
  <advance width="718"/>
  <unicode hex="0026"/>
  <outline>
    <contour>
      <point x="562" y="163" type="curve"/>
      <point x="673" y="0" type="line"/>
      <point x="454" y="0" type="line"/>
      <point x="422" y="46" type="line"/>
      <point x="358" y="8"/>
      <point x="291" y="-10"/>
      <point x="214" y="-10" type="curve" smooth="yes"/>
      <point x="92" y="-10"/>
      <point x="7" y="54"/>
      <point x="7" y="165" type="curve" smooth="yes"/>
      <point x="7" y="261"/>
      <point x="68" y="337"/>
      <point x="184" y="390" type="curve"/>
      <point x="158" y="430"/>
      <point x="145" y="479"/>
      <point x="145" y="525" type="curve" smooth="yes"/>
      <point x="145" y="628"/>
      <point x="216" y="711"/>
      <point x="387" y="711" type="curve" smooth="yes"/>
      <point x="500" y="711"/>
      <point x="576" y="678"/>
      <point x="641" y="631" type="curve"/>
      <point x="537" y="495" type="line"/>
      <point x="483" y="534"/>
      <point x="439" y="554"/>
      <point x="391" y="554" type="curve" smooth="yes"/>
      <point x="355" y="554"/>
      <point x="337" y="537"/>
      <point x="337" y="514" type="curve" smooth="yes"/>
      <point x="337" y="501"/>
      <point x="342" y="485"/>
      <point x="352" y="471" type="curve" smooth="yes"/>
      <point x="475" y="291" type="line"/>
      <point x="500" y="324"/>
      <point x="525" y="360"/>
      <point x="549" y="396" type="curve"/>
      <point x="682" y="311" type="line"/>
      <point x="640" y="254"/>
      <point x="600" y="204"/>
    </contour>
    <contour>
      <point x="341" y="163" type="curve"/>
      <point x="257" y="285" type="line"/>
      <point x="220" y="263"/>
      <point x="197" y="232"/>
      <point x="197" y="197" type="curve" smooth="yes"/>
      <point x="197" y="162"/>
      <point x="221" y="143"/>
      <point x="270" y="143" type="curve" smooth="yes"/>
      <point x="294" y="143"/>
      <point x="318" y="150"/>
    </contour>
  </outline>
</glyph>
<glyph name="quotesingle" format="1">
  <advance width="343"/>
  <unicode hex="0027"/>
  <outline>
    <contour>
      <point x="358" y="700" type="line"/>
      <point x="262" y="373" type="line"/>
      <point x="121" y="373" type="line"/>
      <point x="139" y="700" type="line"/>
    </contour>
  </outline>
</glyph>
<glyph name="parenleft" format="1">
  <advance width="430"/>
  <unicode hex="0028"/>
  <outline>
    <contour>
      <point x="321" y="-33" type="curve"/>
      <point x="180" y="-104" type="line"/>
      <point x="105" y="4"/>
      <point x="58" y="120"/>
      <point x="58" y="244" type="curve" smooth="yes"/>
      <point x="58" y="415"/>
      <point x="157" y="570"/>
      <point x="326" y="722" type="curve"/>
      <point x="441" y="633" type="line"/>
      <point x="305" y="483"/>
      <point x="261" y="342"/>
      <point x="261" y="204" type="curve" smooth="yes"/>
      <point x="261" y="132"/>
      <point x="276" y="59"/>
    </contour>
  </outline>
</glyph>
<glyph name="parenright" format="1">
  <advance width="430"/>
  <unicode hex="0029"/>
  <outline>
    <contour>
      <point x="125" y="649" type="curve"/>
      <point x="266" y="720" type="line"/>
      <point x="341" y="612"/>
      <point x="388" y="496"/>
      <point x="388" y="372" type="curve" smooth="yes"/>
      <point x="388" y="201"/>
      <point x="289" y="46"/>
      <point x="120" y="-106" type="curve"/>
      <point x="5" y="-17" type="line"/>
      <point x="141" y="133"/>
      <point x="185" y="274"/>
      <point x="185" y="412" type="curve" smooth="yes"/>
      <point x="185" y="484"/>
      <point x="170" y="557"/>
    </contour>
  </outline>
</glyph>
<glyph name="asterisk" format="1">
  <advance width="550"/>
  <unicode hex="002A"/>
  <outline>
    <contour>
      <point x="544" y="397" type="line"/>
      <point x="473" y="276" type="line"/>
      <point x="340" y="385" type="line"/>
      <point x="368" y="216" type="line"/>
      <point x="230" y="216" type="line"/>
      <point x="257" y="387" type="line"/>
      <point x="124" y="279" type="line"/>
      <point x="54" y="398" type="line"/>
      <point x="224" y="458" type="line"/>
      <point x="54" y="519" type="line"/>
      <point x="124" y="640" type="line"/>
      <point x="257" y="530" type="line"/>
      <point x="230" y="700" type="line"/>
      <point x="368" y="700" type="line"/>
      <point x="340" y="531" type="line"/>
      <point x="473" y="641" type="line"/>
      <point x="544" y="521" type="line"/>
      <point x="371" y="459" type="line"/>
    </contour>
  </outline>
</glyph>
<glyph name="plus" format="1">
  <advance width="646"/>
  <unicode hex="002B"/>
  <outline>
    <contour>
      <point x="601" y="258" type="line"/>
      <point x="424" y="258" type="line"/>
      <point x="424" y="73" type="line"/>
      <point x="242" y="73" type="line"/>
      <point x="242" y="258" type="line"/>
      <point x="65" y="258" type="line"/>
      <point x="65" y="430" type="line"/>
      <point x="242" y="430" type="line"/>
      <point x="242" y="615" type="line"/>
      <point x="424" y="615" type="line"/>
      <point x="424" y="430" type="line"/>
      <point x="601" y="430" type="line"/>
    </contour>
  </outline>
</glyph>
<glyph name="comma" format="1">
  <advance width="314"/>
  <unicode hex="002C"/>
  <outline>
    <contour>
      <point x="267" y="209" type="line"/>
      <point x="112" y="-124" type="line"/>
      <point x="-11" y="-124" type="line"/>
      <point x="62" y="209" type="line"/>
    </contour>
  </outline>
</glyph>
<glyph name="period" format="1">
  <advance width="314"/>
  <unicode hex="002E"/>
  <outline>
    <contour>
      <point x="243" y="104" type="curve" smooth="yes"/>
      <point x="243" y="38"/>
      <point x="194" y="-11"/>
      <point x="128" y="-11" type="curve" smooth="yes"/>
      <point x="62" y="-11"/>
      <point x="13" y="38"/>
      <point x="13" y="104" type="curve" smooth="yes"/>
      <point x="13" y="170"/>
      <point x="62" y="217"/>
      <point x="128" y="217" type="curve" smooth="yes"/>
      <point x="194" y="217"/>
      <point x="243" y="170"/>
    </contour>
  </outline>
</glyph>
<glyph name="zero" format="1">
  <advance width="712"/>
  <unicode hex="0030"/>
  <outline>
    <contour>
      <point x="413" y="711" type="curve" smooth="yes"/>
      <point x="578" y="711"/>
      <point x="695" y="604"/>
      <point x="695" y="419" type="curve" smooth="yes"/>
      <point x="695" y="191"/>
      <point x="550" y="-11"/>
      <point x="331" y="-11" type="curve" smooth="yes"/>
      <point x="166" y="-11"/>
      <point x="49" y="96"/>
      <point x="49" y="281" type="curve" smooth="yes"/>
      <point x="49" y="509"/>
      <point x="194" y="711"/>
    </contour>
    <contour>
      <point x="396" y="544" type="curve" smooth="yes"/>
      <point x="299" y="544"/>
      <point x="249" y="406"/>
      <point x="249" y="285" type="curve" smooth="yes"/>
      <point x="249" y="202"/>
      <point x="285" y="156"/>
      <point x="348" y="156" type="curve" smooth="yes"/>
      <point x="445" y="156"/>
      <point x="495" y="294"/>
      <point x="495" y="415" type="curve" smooth="yes"/>
      <point x="495" y="498"/>
      <point x="459" y="544"/>
    </contour>
  </outline>
</glyph>
<glyph name="one" format="1">
  <advance width="417"/>
  <unicode hex="0031"/>
  <outline>
    <contour>
      <point x="298" y="0" type="line"/>
      <point x="108" y="0" type="line"/>
      <point x="193" y="482" type="line"/>
      <point x="79" y="482" type="line"/>
      <point x="101" y="605" type="line"/>
      <point x="192" y="610"/>
      <point x="228" y="635"/>
      <point x="260" y="700" type="curve"/>
      <point x="422" y="700" type="line"/>
    </contour>
  </outline>
</glyph>
<glyph name="two" format="1">
  <advance width="680"/>
  <unicode hex="0032"/>
  <outline>
    <contour>
      <point x="574" y="0" type="line"/>
      <point x="6" y="0" type="line"/>
      <point x="37" y="220"/>
      <point x="153" y="355"/>
      <point x="372" y="428" type="curve" smooth="yes"/>
      <point x="443" y="452"/>
      <point x="468" y="472"/>
      <point x="468" y="505" type="curve" smooth="yes"/>
      <point x="468" y="533"/>
      <point x="446" y="548"/>
      <point x="384" y="548" type="curve" smooth="yes"/>
      <point x="314" y="548"/>
      <point x="245" y="526"/>
      <point x="181" y="495" type="curve"/>
      <point x="117" y="638" type="line"/>
      <point x="183" y="675"/>
      <point x="276" y="711"/>
      <point x="396" y="711" type="curve" smooth="yes"/>
      <point x="570" y="711"/>
      <point x="662" y="642"/>
      <point x="662" y="525" type="curve" smooth="yes"/>
      <point x="662" y="394"/>
      <point x="572" y="345"/>
      <point x="434" y="295" type="curve" smooth="yes"/>
      <point x="348" y="264"/>
      <point x="264" y="231"/>
      <point x="236" y="158" type="curve"/>
      <point x="602" y="158" type="line"/>
    </contour>
  </outline>
</glyph>
<glyph name="three" format="1">
  <advance width="681"/>
  <unicode hex="0033"/>
  <outline>
    <contour>
      <point x="632" y="230" type="curve" smooth="yes"/>
      <point x="632" y="77"/>
      <point x="508" y="-11"/>
      <point x="320" y="-11" type="curve" smooth="yes"/>
      <point x="182" y="-11"/>
      <point x="76" y="52"/>
      <point x="12" y="123" type="curve"/>
      <point x="131" y="242" type="line"/>
      <point x="192" y="186"/>
      <point x="262" y="149"/>
      <point x="340" y="149" type="curve" smooth="yes"/>
      <point x="394" y="149"/>
      <point x="443" y="169"/>
      <point x="443" y="228" type="curve" smooth="yes"/>
      <point x="443" y="265"/>
      <point x="422" y="287"/>
      <point x="343" y="287" type="curve" smooth="yes"/>
      <point x="257" y="287" type="line"/>
      <point x="284" y="438" type="line"/>
      <point x="380" y="438" type="line" smooth="yes"/>
      <point x="435" y="438"/>
      <point x="462" y="458"/>
      <point x="462" y="495" type="curve" smooth="yes"/>
      <point x="462" y="531"/>
      <point x="432" y="554"/>
      <point x="353" y="554" type="curve" smooth="yes"/>
      <point x="285" y="554"/>
      <point x="232" y="531"/>
      <point x="193" y="508" type="curve"/>
      <point x="124" y="634" type="line"/>
      <point x="169" y="665"/>
      <point x="254" y="711"/>
      <point x="387" y="711" type="curve" smooth="yes"/>
      <point x="567" y="711"/>
      <point x="655" y="643"/>
      <point x="655" y="524" type="curve" smooth="yes"/>
      <point x="655" y="441"/>
      <point x="594" y="393"/>
      <point x="534" y="373" type="curve"/>
      <point x="598" y="346"/>
      <point x="632" y="301"/>
    </contour>
  </outline>
</glyph>
<glyph name="four" format="1">
  <advance width="737"/>
  <unicode hex="0034"/>
  <outline>
    <contour>
      <point x="671" y="120" type="line"/>
      <point x="581" y="120" type="line"/>
      <point x="560" y="0" type="line"/>
      <point x="386" y="0" type="line"/>
      <point x="408" y="125" type="line"/>
      <point x="17" y="125" type="line"/>
      <point x="42" y="267" type="line"/>
      <point x="491" y="700" type="line"/>
      <point x="683" y="700" type="line"/>
      <point x="610" y="284" type="line"/>
      <point x="700" y="284" type="line"/>
    </contour>
    <contour>
      <point x="478" y="504" type="curve"/>
      <point x="454" y="475"/>
      <point x="434" y="450"/>
      <point x="379" y="395" type="curve" smooth="yes"/>
      <point x="367" y="383" type="line" smooth="yes"/>
      <point x="322" y="338"/>
      <point x="287" y="306"/>
      <point x="257" y="281" type="curve"/>
      <point x="292" y="283"/>
      <point x="340" y="284"/>
      <point x="388" y="284" type="curve" smooth="yes"/>
      <point x="436" y="284" type="line"/>
      <point x="448" y="353" type="line" smooth="yes"/>
      <point x="455" y="394"/>
      <point x="470" y="471"/>
    </contour>
  </outline>
</glyph>
<glyph name="five" format="1">
  <advance width="707"/>
  <unicode hex="0035"/>
  <outline>
    <contour>
      <point x="657" y="280" type="curve" smooth="yes"/>
      <point x="657" y="90"/>
      <point x="526" y="-11"/>
      <point x="336" y="-11" type="curve" smooth="yes"/>
      <point x="234" y="-11"/>
      <point x="112" y="20"/>
      <point x="19" y="92" type="curve"/>
      <point x="117" y="235" type="line"/>
      <point x="185" y="186"/>
      <point x="273" y="150"/>
      <point x="348" y="150" type="curve" smooth="yes"/>
      <point x="431" y="150"/>
      <point x="465" y="189"/>
      <point x="465" y="248" type="curve" smooth="yes"/>
      <point x="465" y="295"/>
      <point x="433" y="321"/>
      <point x="373" y="321" type="curve" smooth="yes"/>
      <point x="321" y="321"/>
      <point x="280" y="298"/>
      <point x="253" y="281" type="curve"/>
      <point x="97" y="337" type="line"/>
      <point x="185" y="700" type="line"/>
      <point x="691" y="700" type="line"/>
      <point x="663" y="542" type="line"/>
      <point x="314" y="542" type="line"/>
      <point x="291" y="445" type="line"/>
      <point x="322" y="463"/>
      <point x="374" y="476"/>
      <point x="429" y="476" type="curve" smooth="yes"/>
      <point x="582" y="476"/>
      <point x="657" y="406"/>
    </contour>
  </outline>
</glyph>
<glyph name="six" format="1">
  <advance width="692"/>
  <unicode hex="0036"/>
  <outline>
    <contour>
      <point x="655" y="266" type="curve" smooth="yes"/>
      <point x="655" y="88"/>
      <point x="502" y="-11"/>
      <point x="317" y="-11" type="curve" smooth="yes"/>
      <point x="134" y="-11"/>
      <point x="37" y="91"/>
      <point x="37" y="241" type="curve" smooth="yes"/>
      <point x="37" y="471"/>
      <point x="228" y="710"/>
      <point x="637" y="711" type="curve"/>
      <point x="609" y="552" type="line"/>
      <point x="433" y="552"/>
      <point x="316" y="498"/>
      <point x="249" y="417" type="curve"/>
      <point x="298" y="447"/>
      <point x="357" y="458"/>
      <point x="414" y="458" type="curve" smooth="yes"/>
      <point x="588" y="458"/>
      <point x="655" y="374"/>
    </contour>
    <contour>
      <point x="462" y="238" type="curve" smooth="yes"/>
      <point x="462" y="291"/>
      <point x="413" y="315"/>
      <point x="338" y="315" type="curve" smooth="yes"/>
      <point x="253" y="315"/>
      <point x="218" y="272"/>
      <point x="218" y="223" type="curve" smooth="yes"/>
      <point x="218" y="180"/>
      <point x="251" y="142"/>
      <point x="336" y="142" type="curve" smooth="yes"/>
      <point x="409" y="142"/>
      <point x="462" y="175"/>
    </contour>
  </outline>
</glyph>
<glyph name="seven" format="1">
  <advance width="688"/>
  <unicode hex="0037"/>
  <outline>
    <contour>
      <point x="673" y="547" type="line"/>
      <point x="450" y="392"/>
      <point x="373" y="227"/>
      <point x="333" y="0" type="curve"/>
      <point x="143" y="0" type="line"/>
      <point x="189" y="245"/>
      <point x="289" y="427"/>
      <point x="453" y="542" type="curve"/>
      <point x="98" y="542" type="line"/>
      <point x="126" y="700" type="line"/>
      <point x="701" y="700" type="line"/>
    </contour>
  </outline>
</glyph>
<glyph name="eight" format="1">
  <advance width="726"/>
  <unicode hex="0038"/>
  <outline>
    <contour>
      <point x="676" y="221" type="curve" smooth="yes"/>
      <point x="676" y="76"/>
      <point x="524" y="-11"/>
      <point x="353" y="-11" type="curve" smooth="yes"/>
      <point x="172" y="-11"/>
      <point x="36" y="67"/>
      <point x="36" y="203" type="curve" smooth="yes"/>
      <point x="36" y="304"/>
      <point x="102" y="359"/>
      <point x="175" y="386" type="curve"/>
      <point x="136" y="419"/>
      <point x="117" y="454"/>
      <point x="117" y="505" type="curve" smooth="yes"/>
      <point x="117" y="615"/>
      <point x="223" y="711"/>
      <point x="408" y="711" type="curve" smooth="yes"/>
      <point x="583" y="711"/>
      <point x="696" y="637"/>
      <point x="696" y="516" type="curve" smooth="yes"/>
      <point x="696" y="435"/>
      <point x="651" y="388"/>
      <point x="585" y="359" type="curve"/>
      <point x="643" y="329"/>
      <point x="676" y="288"/>
    </contour>
    <contour>
      <point x="508" y="502" type="curve" smooth="yes"/>
      <point x="508" y="537"/>
      <point x="480" y="570"/>
      <point x="405" y="570" type="curve" smooth="yes"/>
      <point x="329" y="570"/>
      <point x="304" y="532"/>
      <point x="304" y="497" type="curve" smooth="yes"/>
      <point x="304" y="463"/>
      <point x="335" y="431"/>
      <point x="410" y="431" type="curve" smooth="yes"/>
      <point x="478" y="431"/>
      <point x="508" y="465"/>
    </contour>
    <contour>
      <point x="488" y="224" type="curve" smooth="yes"/>
      <point x="488" y="272"/>
      <point x="444" y="305"/>
      <point x="359" y="305" type="curve" smooth="yes"/>
      <point x="266" y="305"/>
      <point x="224" y="267"/>
      <point x="224" y="220" type="curve" smooth="yes"/>
      <point x="224" y="173"/>
      <point x="272" y="136"/>
      <point x="356" y="136" type="curve" smooth="yes"/>
      <point x="438" y="136"/>
      <point x="488" y="170"/>
    </contour>
  </outline>
</glyph>
<glyph name="nine" format="1">
  <advance width="692"/>
  <unicode hex="0039"/>
  <outline>
    <contour>
      <point x="69" y="434" type="curve" smooth="yes"/>
      <point x="69" y="612"/>
      <point x="222" y="711"/>
      <point x="407" y="711" type="curve" smooth="yes"/>
      <point x="590" y="711"/>
      <point x="687" y="609"/>
      <point x="687" y="459" type="curve" smooth="yes"/>
      <point x="687" y="229"/>
      <point x="496" y="-10"/>
      <point x="87" y="-11" type="curve"/>
      <point x="115" y="148" type="line"/>
      <point x="291" y="148"/>
      <point x="408" y="202"/>
      <point x="475" y="283" type="curve"/>
      <point x="426" y="253"/>
      <point x="367" y="242"/>
      <point x="310" y="242" type="curve" smooth="yes"/>
      <point x="136" y="242"/>
      <point x="69" y="326"/>
    </contour>
    <contour>
      <point x="262" y="462" type="curve" smooth="yes"/>
      <point x="262" y="409"/>
      <point x="311" y="385"/>
      <point x="386" y="385" type="curve" smooth="yes"/>
      <point x="471" y="385"/>
      <point x="506" y="428"/>
      <point x="506" y="477" type="curve" smooth="yes"/>
      <point x="506" y="520"/>
      <point x="473" y="558"/>
      <point x="388" y="558" type="curve" smooth="yes"/>
      <point x="315" y="558"/>
      <point x="262" y="525"/>
    </contour>
  </outline>
</glyph>
<glyph name="colon" format="1">
  <advance width="314"/>
  <unicode hex="003A"/>
  <outline>
    <contour>
      <point x="302" y="423" type="curve" smooth="yes"/>
      <point x="302" y="357"/>
      <point x="253" y="308"/>
      <point x="187" y="308" type="curve" smooth="yes"/>
      <point x="121" y="308"/>
      <point x="72" y="357"/>
      <point x="72" y="423" type="curve" smooth="yes"/>
      <point x="72" y="489"/>
      <point x="121" y="536"/>
      <point x="187" y="536" type="curve" smooth="yes"/>
      <point x="253" y="536"/>
      <point x="302" y="489"/>
    </contour>
    <contour>
      <point x="243" y="104" type="curve" smooth="yes"/>
      <point x="243" y="38"/>
      <point x="194" y="-11"/>
      <point x="128" y="-11" type="curve" smooth="yes"/>
      <point x="62" y="-11"/>
      <point x="13" y="38"/>
      <point x="13" y="104" type="curve" smooth="yes"/>
      <point x="13" y="170"/>
      <point x="62" y="217"/>
      <point x="128" y="217" type="curve" smooth="yes"/>
      <point x="194" y="217"/>
      <point x="243" y="170"/>
    </contour>
  </outline>
</glyph>
<glyph name="semicolon" format="1">
  <advance width="314"/>
  <unicode hex="003B"/>
  <outline>
    <contour>
      <point x="302" y="423" type="curve" smooth="yes"/>
      <point x="302" y="357"/>
      <point x="253" y="308"/>
      <point x="187" y="308" type="curve" smooth="yes"/>
      <point x="121" y="308"/>
      <point x="72" y="357"/>
      <point x="72" y="423" type="curve" smooth="yes"/>
      <point x="72" y="489"/>
      <point x="121" y="536"/>
      <point x="187" y="536" type="curve" smooth="yes"/>
      <point x="253" y="536"/>
      <point x="302" y="489"/>
    </contour>
    <contour>
      <point x="251" y="204" type="line"/>
      <point x="99" y="-121" type="line"/>
      <point x="-20" y="-121" type="line"/>
      <point x="51" y="204" type="line"/>
    </contour>
  </outline>
</glyph>
<glyph name="less" format="1">
  <advance width="515"/>
  <unicode hex="003C"/>
  <outline>
    <contour>
      <point x="464" y="-11" type="line"/>
      <point x="67" y="284" type="line"/>
      <point x="67" y="416" type="line"/>
      <point x="464" y="711" type="line"/>
      <point x="464" y="477" type="line"/>
      <point x="269" y="352" type="line"/>
      <point x="464" y="227" type="line"/>
    </contour>
  </outline>
</glyph>
<glyph name="equal" format="1">
  <advance width="646"/>
  <unicode hex="003D"/>
  <outline>
    <contour>
      <point x="576" y="390" type="line"/>
      <point x="90" y="390" type="line"/>
      <point x="90" y="572" type="line"/>
      <point x="576" y="572" type="line"/>
    </contour>
    <contour>
      <point x="576" y="116" type="line"/>
      <point x="90" y="116" type="line"/>
      <point x="90" y="298" type="line"/>
      <point x="576" y="298" type="line"/>
    </contour>
  </outline>
</glyph>
<glyph name="greater" format="1">
  <advance width="515"/>
  <unicode hex="003E"/>
  <outline>
    <contour>
      <point x="468" y="284" type="line"/>
      <point x="71" y="-11" type="line"/>
      <point x="71" y="223" type="line"/>
      <point x="266" y="348" type="line"/>
      <point x="71" y="473" type="line"/>
      <point x="71" y="711" type="line"/>
      <point x="468" y="416" type="line"/>
    </contour>
  </outline>
</glyph>
<glyph name="question" format="1">
  <advance width="598"/>
  <unicode hex="003F"/>
  <outline>
    <contour>
      <point x="458" y="346" type="curve" smooth="yes"/>
      <point x="386" y="320"/>
      <point x="374" y="298"/>
      <point x="366" y="250" type="curve"/>
      <point x="187" y="250" type="line"/>
      <point x="198" y="339"/>
      <point x="231" y="396"/>
      <point x="348" y="437" type="curve" smooth="yes"/>
      <point x="394" y="453"/>
      <point x="419" y="470"/>
      <point x="419" y="501" type="curve" smooth="yes"/>
      <point x="419" y="531"/>
      <point x="388" y="548"/>
      <point x="334" y="548" type="curve" smooth="yes"/>
      <point x="267" y="548"/>
      <point x="197" y="523"/>
      <point x="149" y="495" type="curve"/>
      <point x="85" y="643" type="line"/>
      <point x="172" y="692"/>
      <point x="274" y="711"/>
      <point x="350" y="711" type="curve" smooth="yes"/>
      <point x="505" y="711"/>
      <point x="611" y="651"/>
      <point x="611" y="529" type="curve" smooth="yes"/>
      <point x="611" y="437"/>
      <point x="552" y="380"/>
    </contour>
    <contour>
      <point x="349" y="93" type="curve" smooth="yes"/>
      <point x="349" y="34"/>
      <point x="305" y="-11"/>
      <point x="245" y="-11" type="curve" smooth="yes"/>
      <point x="185" y="-11"/>
      <point x="141" y="34"/>
      <point x="141" y="93" type="curve" smooth="yes"/>
      <point x="141" y="152"/>
      <point x="185" y="195"/>
      <point x="245" y="195" type="curve" smooth="yes"/>
      <point x="305" y="195"/>
      <point x="349" y="152"/>
    </contour>
  </outline>
</glyph>
<glyph name="at" format="1">
  <advance width="836"/>
  <unicode hex="0040"/>
  <outline>
    <contour>
      <point x="800" y="360" type="curve" smooth="yes"/>
      <point x="800" y="216"/>
      <point x="745" y="153"/>
      <point x="653" y="153" type="curve" smooth="yes"/>
      <point x="596" y="153"/>
      <point x="563" y="175"/>
      <point x="540" y="202" type="curve"/>
      <point x="494" y="172"/>
      <point x="447" y="155"/>
      <point x="385" y="155" type="curve" smooth="yes"/>
      <point x="311" y="155"/>
      <point x="261" y="201"/>
      <point x="261" y="287" type="curve" smooth="yes"/>
      <point x="261" y="369"/>
      <point x="318" y="412"/>
      <point x="399" y="412" type="curve" smooth="yes"/>
      <point x="439" y="412"/>
      <point x="471" y="405"/>
      <point x="494" y="393" type="curve"/>
      <point x="494" y="420" type="line" smooth="yes"/>
      <point x="494" y="453"/>
      <point x="473" y="465"/>
      <point x="430" y="465" type="curve" smooth="yes"/>
      <point x="393" y="465"/>
      <point x="357" y="457"/>
      <point x="317" y="439" type="curve"/>
      <point x="284" y="519" type="line"/>
      <point x="331" y="541"/>
      <point x="383" y="554"/>
      <point x="449" y="554" type="curve" smooth="yes"/>
      <point x="556" y="554"/>
      <point x="603" y="501"/>
      <point x="603" y="412" type="curve" smooth="yes"/>
      <point x="603" y="287" type="line" smooth="yes"/>
      <point x="603" y="245"/>
      <point x="618" y="221"/>
      <point x="658" y="221" type="curve" smooth="yes"/>
      <point x="709" y="221"/>
      <point x="726" y="266"/>
      <point x="726" y="361" type="curve" smooth="yes"/>
      <point x="726" y="520"/>
      <point x="604" y="640"/>
      <point x="439" y="640" type="curve" smooth="yes"/>
      <point x="264" y="640"/>
      <point x="152" y="512"/>
      <point x="152" y="351" type="curve" smooth="yes"/>
      <point x="152" y="176"/>
      <point x="275" y="60"/>
      <point x="439" y="60" type="curve" smooth="yes"/>
      <point x="484" y="60"/>
      <point x="529" y="69"/>
      <point x="566" y="87" type="curve"/>
      <point x="594" y="22" type="line"/>
      <point x="542" y="0"/>
      <point x="492" y="-11"/>
      <point x="439" y="-11" type="curve" smooth="yes"/>
      <point x="239" y="-11"/>
      <point x="78" y="141"/>
      <point x="78" y="350" type="curve" smooth="yes"/>
      <point x="78" y="550"/>
      <point x="230" y="711"/>
      <point x="439" y="711" type="curve" smooth="yes"/>
      <point x="648" y="711"/>
      <point x="800" y="548"/>
    </contour>
    <contour>
      <point x="494" y="261" type="curve"/>
      <point x="494" y="321" type="line"/>
      <point x="474" y="330"/>
      <point x="448" y="335"/>
      <point x="423" y="335" type="curve" smooth="yes"/>
      <point x="387" y="335"/>
      <point x="367" y="318"/>
      <point x="367" y="289" type="curve" smooth="yes"/>
      <point x="367" y="262"/>
      <point x="384" y="242"/>
      <point x="423" y="242" type="curve" smooth="yes"/>
      <point x="445" y="242"/>
      <point x="477" y="252"/>
    </contour>
  </outline>
</glyph>
<glyph name="A" format="1">
  <advance width="762"/>
  <unicode hex="0041"/>
  <outline>
    <contour>
      <point x="250" y="123" type="line"/>
      <point x="191" y="0" type="line"/>
      <point x="-17" y="0" type="line"/>
      <point x="356" y="700" type="line"/>
      <point x="556" y="700" type="line"/>
      <point x="682" y="0" type="line"/>
      <point x="472" y="0" type="line"/>
      <point x="458" y="123" type="line"/>
    </contour>
    <contour>
      <point x="441" y="277" type="line"/>
      <point x="436" y="323" type="line" smooth="yes"/>
      <point x="426" y="413"/>
      <point x="423" y="450"/>
      <point x="422" y="498" type="curve"/>
      <point x="409" y="457"/>
      <point x="388" y="411"/>
      <point x="346" y="323" type="curve" smooth="yes"/>
      <point x="324" y="277" type="line"/>
    </contour>
  </outline>
</glyph>
<glyph name="B" format="1">
  <advance width="713"/>
  <unicode hex="0042"/>
  <outline>
    <contour>
      <point x="662" y="235" type="curve" smooth="yes"/>
      <point x="662" y="90"/>
      <point x="536" y="0"/>
      <point x="387" y="0" type="curve" smooth="yes"/>
      <point x="25" y="0" type="line"/>
      <point x="148" y="700" type="line"/>
      <point x="459" y="700" type="line" smooth="yes"/>
      <point x="618" y="700"/>
      <point x="699" y="643"/>
      <point x="699" y="537" type="curve" smooth="yes"/>
      <point x="699" y="448"/>
      <point x="645" y="397"/>
      <point x="587" y="373" type="curve"/>
      <point x="633" y="348"/>
      <point x="662" y="297"/>
    </contour>
    <contour>
      <point x="502" y="500" type="curve" smooth="yes"/>
      <point x="502" y="533"/>
      <point x="475" y="547"/>
      <point x="438" y="547" type="curve" smooth="yes"/>
      <point x="307" y="547" type="line"/>
      <point x="288" y="437" type="line"/>
      <point x="428" y="437" type="line" smooth="yes"/>
      <point x="472" y="437"/>
      <point x="502" y="460"/>
    </contour>
    <contour>
      <point x="471" y="234" type="curve" smooth="yes"/>
      <point x="471" y="265"/>
      <point x="451" y="289"/>
      <point x="401" y="289" type="curve" smooth="yes"/>
      <point x="262" y="289" type="line"/>
      <point x="238" y="153" type="line"/>
      <point x="384" y="153" type="line" smooth="yes"/>
      <point x="433" y="153"/>
      <point x="471" y="178"/>
    </contour>
  </outline>
</glyph>
<glyph name="C" format="1">
  <advance width="682"/>
  <unicode hex="0043"/>
  <outline>
    <contour>
      <point x="638" y="170" type="line"/>
      <point x="593" y="98"/>
      <point x="520" y="-11"/>
      <point x="342" y="-11" type="curve" smooth="yes"/>
      <point x="161" y="-11"/>
      <point x="50" y="94"/>
      <point x="50" y="282" type="curve" smooth="yes"/>
      <point x="50" y="507"/>
      <point x="184" y="711"/>
      <point x="410" y="711" type="curve" smooth="yes"/>
      <point x="582" y="711"/>
      <point x="657" y="637"/>
      <point x="685" y="505" type="curve"/>
      <point x="500" y="436" type="line"/>
      <point x="484" y="497"/>
      <point x="461" y="542"/>
      <point x="396" y="542" type="curve" smooth="yes"/>
      <point x="298" y="542"/>
      <point x="255" y="403"/>
      <point x="255" y="292" type="curve" smooth="yes"/>
      <point x="255" y="202"/>
      <point x="289" y="158"/>
      <point x="354" y="158" type="curve" smooth="yes"/>
      <point x="424" y="158"/>
      <point x="459" y="216"/>
      <point x="485" y="257" type="curve"/>
    </contour>
  </outline>
</glyph>
<glyph name="D" format="1">
  <advance width="718"/>
  <unicode hex="0044"/>
  <outline>
    <contour>
      <point x="302" y="0" type="curve" smooth="yes"/>
      <point x="25" y="0" type="line"/>
      <point x="148" y="700" type="line"/>
      <point x="349" y="700" type="line" smooth="yes"/>
      <point x="578" y="700"/>
      <point x="699" y="613"/>
      <point x="699" y="425" type="curve" smooth="yes"/>
      <point x="699" y="175"/>
      <point x="579" y="0"/>
    </contour>
    <contour>
      <point x="496" y="407" type="curve" smooth="yes"/>
      <point x="496" y="490"/>
      <point x="456" y="534"/>
      <point x="339" y="534" type="curve" smooth="yes"/>
      <point x="315" y="534" type="line"/>
      <point x="251" y="166" type="line"/>
      <point x="317" y="166" type="line" smooth="yes"/>
      <point x="434" y="166"/>
      <point x="496" y="251"/>
    </contour>
  </outline>
</glyph>
<glyph name="E" format="1">
  <advance width="663"/>
  <unicode hex="0045"/>
  <outline>
    <contour>
      <point x="564" y="0" type="line"/>
      <point x="25" y="0" type="line"/>
      <point x="148" y="700" type="line"/>
      <point x="680" y="700" type="line"/>
      <point x="651" y="537" type="line"/>
      <point x="311" y="537" type="line"/>
      <point x="295" y="444" type="line"/>
      <point x="498" y="444" type="line"/>
      <point x="469" y="283" type="line"/>
      <point x="266" y="283" type="line"/>
      <point x="245" y="163" type="line"/>
      <point x="592" y="163" type="line"/>
    </contour>
  </outline>
</glyph>
<glyph name="F" format="1">
  <advance width="654"/>
  <unicode hex="0046"/>
  <outline>
    <contour>
      <point x="669" y="535" type="line"/>
      <point x="312" y="535" type="line"/>
      <point x="295" y="438" type="line"/>
      <point x="510" y="438" type="line"/>
      <point x="481" y="274" type="line"/>
      <point x="266" y="274" type="line"/>
      <point x="217" y="0" type="line"/>
      <point x="25" y="0" type="line"/>
      <point x="148" y="700" type="line"/>
      <point x="698" y="700" type="line"/>
    </contour>
  </outline>
</glyph>
<glyph name="G" format="1">
  <advance width="717"/>
  <unicode hex="0047"/>
  <outline>
    <contour>
      <point x="676" y="286" type="line" smooth="yes"/>
      <point x="644" y="102"/>
      <point x="548" y="-11"/>
      <point x="345" y="-11" type="curve" smooth="yes"/>
      <point x="167" y="-11"/>
      <point x="47" y="95"/>
      <point x="47" y="289" type="curve" smooth="yes"/>
      <point x="47" y="496"/>
      <point x="178" y="711"/>
      <point x="418" y="711" type="curve" smooth="yes"/>
      <point x="586" y="711"/>
      <point x="665" y="641"/>
      <point x="699" y="501" type="curve"/>
      <point x="511" y="446" type="line"/>
      <point x="498" y="497"/>
      <point x="470" y="542"/>
      <point x="405" y="542" type="curve" smooth="yes"/>
      <point x="296" y="542"/>
      <point x="250" y="397"/>
      <point x="250" y="284" type="curve" smooth="yes"/>
      <point x="250" y="201"/>
      <point x="282" y="153"/>
      <point x="369" y="153" type="curve" smooth="yes"/>
      <point x="453" y="153"/>
      <point x="478" y="194"/>
      <point x="489" y="239" type="curve"/>
      <point x="361" y="239" type="line"/>
      <point x="387" y="384" type="line"/>
      <point x="693" y="384" type="line"/>
    </contour>
  </outline>
</glyph>
<glyph name="H" format="1">
  <advance width="752"/>
  <unicode hex="0048"/>
  <outline>
    <contour>
      <point x="635" y="0" type="line"/>
      <point x="437" y="0" type="line"/>
      <point x="485" y="276" type="line"/>
      <point x="271" y="276" type="line"/>
      <point x="223" y="0" type="line"/>
      <point x="25" y="0" type="line"/>
      <point x="148" y="700" type="line"/>
      <point x="346" y="700" type="line"/>
      <point x="301" y="445" type="line"/>
      <point x="515" y="445" type="line"/>
      <point x="560" y="700" type="line"/>
      <point x="758" y="700" type="line"/>
    </contour>
  </outline>
</glyph>
<glyph name="I" format="1">
  <advance width="350"/>
  <unicode hex="0049"/>
  <outline>
    <contour>
      <point x="228" y="0" type="line"/>
      <point x="30" y="0" type="line"/>
      <point x="154" y="700" type="line"/>
      <point x="352" y="700" type="line"/>
    </contour>
  </outline>
</glyph>
<glyph name="J" format="1">
  <advance width="686"/>
  <unicode hex="004A"/>
  <outline>
    <contour>
      <point x="619" y="263" type="line" smooth="yes"/>
      <point x="589" y="95"/>
      <point x="504" y="-11"/>
      <point x="301" y="-11" type="curve" smooth="yes"/>
      <point x="97" y="-11"/>
      <point x="34" y="104"/>
      <point x="18" y="251" type="curve"/>
      <point x="214" y="287" type="line"/>
      <point x="224" y="207"/>
      <point x="245" y="160"/>
      <point x="317" y="160" type="curve" smooth="yes"/>
      <point x="381" y="160"/>
      <point x="409" y="196"/>
      <point x="422" y="270" type="curve" smooth="yes"/>
      <point x="498" y="700" type="line"/>
      <point x="696" y="700" type="line"/>
    </contour>
  </outline>
</glyph>
<glyph name="K" format="1">
  <advance width="730"/>
  <unicode hex="004B"/>
  <outline>
    <contour>
      <point x="356" y="304" type="line"/>
      <point x="260" y="211" type="line"/>
      <point x="223" y="0" type="line"/>
      <point x="25" y="0" type="line"/>
      <point x="148" y="700" type="line"/>
      <point x="346" y="700" type="line"/>
      <point x="331" y="618" type="line" smooth="yes"/>
      <point x="320" y="559"/>
      <point x="309" y="496"/>
      <point x="298" y="445" type="curve"/>
      <point x="335" y="491"/>
      <point x="412" y="571"/>
      <point x="465" y="629" type="curve" smooth="yes"/>
      <point x="530" y="700" type="line"/>
      <point x="766" y="700" type="line"/>
      <point x="511" y="454" type="line"/>
      <point x="666" y="0" type="line"/>
      <point x="451" y="0" type="line"/>
    </contour>
  </outline>
</glyph>
<glyph name="L" format="1">
  <advance width="611"/>
  <unicode hex="004C"/>
  <outline>
    <contour>
      <point x="527" y="0" type="line"/>
      <point x="25" y="0" type="line"/>
      <point x="148" y="700" type="line"/>
      <point x="346" y="700" type="line"/>
      <point x="253" y="169" type="line"/>
      <point x="557" y="169" type="line"/>
    </contour>
  </outline>
</glyph>
<glyph name="M" format="1">
  <advance width="840"/>
  <unicode hex="004D"/>
  <outline>
    <contour>
      <point x="723" y="0" type="line"/>
      <point x="541" y="0" type="line"/>
      <point x="571" y="167" type="line" smooth="yes"/>
      <point x="583" y="236"/>
      <point x="595" y="299"/>
      <point x="608" y="353" type="curve"/>
      <point x="587" y="314"/>
      <point x="532" y="221"/>
      <point x="498" y="170" type="curve" smooth="yes"/>
      <point x="368" y="-24" type="line"/>
      <point x="314" y="170" type="line" smooth="yes"/>
      <point x="300" y="220"/>
      <point x="277" y="306"/>
      <point x="266" y="358" type="curve"/>
      <point x="259" y="304"/>
      <point x="249" y="236"/>
      <point x="237" y="167" type="curve" smooth="yes"/>
      <point x="207" y="0" type="line"/>
      <point x="25" y="0" type="line"/>
      <point x="149" y="700" type="line"/>
      <point x="325" y="700" type="line"/>
      <point x="376" y="513" type="line" smooth="yes"/>
      <point x="401" y="422"/>
      <point x="420" y="339"/>
      <point x="425" y="300" type="curve"/>
      <point x="444" y="341"/>
      <point x="491" y="417"/>
      <point x="551" y="513" type="curve" smooth="yes"/>
      <point x="668" y="700" type="line"/>
      <point x="847" y="700" type="line"/>
    </contour>
  </outline>
</glyph>
<glyph name="N" format="1">
  <advance width="752"/>
  <unicode hex="004E"/>
  <outline>
    <contour>
      <point x="635" y="0" type="line"/>
      <point x="477" y="0" type="line"/>
      <point x="355" y="231" type="line" smooth="yes"/>
      <point x="332" y="274"/>
      <point x="287" y="364"/>
      <point x="275" y="395" type="curve"/>
      <point x="274" y="364"/>
      <point x="259" y="271"/>
      <point x="249" y="214" type="curve" smooth="yes"/>
      <point x="211" y="0" type="line"/>
      <point x="25" y="0" type="line"/>
      <point x="149" y="700" type="line"/>
      <point x="320" y="700" type="line"/>
      <point x="437" y="493" type="line" smooth="yes"/>
      <point x="461" y="450"/>
      <point x="507" y="357"/>
      <point x="517" y="328" type="curve"/>
      <point x="518" y="359"/>
      <point x="529" y="452"/>
      <point x="539" y="509" type="curve" smooth="yes"/>
      <point x="573" y="700" type="line"/>
      <point x="759" y="700" type="line"/>
    </contour>
  </outline>
</glyph>
<glyph name="P" format="1">
  <advance width="675"/>
  <unicode hex="0050"/>
  <outline>
    <contour>
      <point x="682" y="495" type="curve" smooth="yes"/>
      <point x="682" y="314"/>
      <point x="542" y="227"/>
      <point x="399" y="227" type="curve" smooth="yes"/>
      <point x="257" y="227" type="line"/>
      <point x="218" y="0" type="line"/>
      <point x="25" y="0" type="line"/>
      <point x="148" y="700" type="line"/>
      <point x="416" y="700" type="line" smooth="yes"/>
      <point x="589" y="700"/>
      <point x="682" y="631"/>
    </contour>
    <contour>
      <point x="486" y="474" type="curve" smooth="yes"/>
      <point x="486" y="526"/>
      <point x="454" y="542"/>
      <point x="394" y="542" type="curve" smooth="yes"/>
      <point x="313" y="542" type="line"/>
      <point x="285" y="385" type="line"/>
      <point x="383" y="385" type="line" smooth="yes"/>
      <point x="449" y="385"/>
      <point x="486" y="419"/>
    </contour>
  </outline>
</glyph>
<glyph name="Q" format="1">
  <advance width="728"/>
  <unicode hex="0051"/>
  <outline>
    <contour>
      <point x="572" y="87" type="curve"/>
      <point x="614" y="7" type="line"/>
      <point x="468" y="-68" type="line"/>
      <point x="430" y="4" type="line"/>
      <point x="402" y="-5"/>
      <point x="375" y="-9"/>
      <point x="350" y="-9" type="curve" smooth="yes"/>
      <point x="168" y="-9"/>
      <point x="49" y="90"/>
      <point x="49" y="287" type="curve" smooth="yes"/>
      <point x="49" y="520"/>
      <point x="199" y="711"/>
      <point x="411" y="711" type="curve" smooth="yes"/>
      <point x="595" y="711"/>
      <point x="709" y="604"/>
      <point x="709" y="422" type="curve" smooth="yes"/>
      <point x="709" y="253"/>
      <point x="632" y="143"/>
    </contour>
    <contour>
      <point x="354" y="148" type="curve"/>
      <point x="309" y="234" type="line"/>
      <point x="455" y="309" type="line"/>
      <point x="484" y="254" type="line"/>
      <point x="497" y="288"/>
      <point x="512" y="345"/>
      <point x="512" y="405" type="curve" smooth="yes"/>
      <point x="512" y="487"/>
      <point x="477" y="542"/>
      <point x="401" y="542" type="curve" smooth="yes"/>
      <point x="305" y="542"/>
      <point x="252" y="418"/>
      <point x="252" y="280" type="curve" smooth="yes"/>
      <point x="252" y="200"/>
      <point x="289" y="150"/>
    </contour>
  </outline>
</glyph>
<glyph name="R" format="1">
  <advance width="712"/>
  <unicode hex="0052"/>
  <outline>
    <contour>
      <point x="621" y="0" type="line"/>
      <point x="416" y="0" type="line"/>
      <point x="339" y="236" type="line"/>
      <point x="260" y="236" type="line"/>
      <point x="218" y="0" type="line"/>
      <point x="25" y="0" type="line"/>
      <point x="148" y="700" type="line"/>
      <point x="425" y="700" type="line" smooth="yes"/>
      <point x="612" y="700"/>
      <point x="696" y="627"/>
      <point x="696" y="505" type="curve" smooth="yes"/>
      <point x="696" y="367"/>
      <point x="617" y="297"/>
      <point x="531" y="261" type="curve"/>
    </contour>
    <contour>
      <point x="497" y="478" type="curve" smooth="yes"/>
      <point x="497" y="518"/>
      <point x="477" y="542"/>
      <point x="416" y="542" type="curve" smooth="yes"/>
      <point x="314" y="542" type="line"/>
      <point x="287" y="389" type="line"/>
      <point x="400" y="389" type="line" smooth="yes"/>
      <point x="456" y="389"/>
      <point x="497" y="416"/>
    </contour>
  </outline>
</glyph>
<glyph name="S" format="1">
  <advance width="675"/>
  <unicode hex="0053"/>
  <outline>
    <contour>
      <point x="619" y="231" type="curve" smooth="yes"/>
      <point x="619" y="69"/>
      <point x="502" y="-11"/>
      <point x="330" y="-11" type="curve" smooth="yes"/>
      <point x="190" y="-11"/>
      <point x="72" y="49"/>
      <point x="10" y="99" type="curve"/>
      <point x="131" y="242" type="line"/>
      <point x="176" y="207"/>
      <point x="258" y="156"/>
      <point x="352" y="156" type="curve" smooth="yes"/>
      <point x="398" y="156"/>
      <point x="419" y="173"/>
      <point x="419" y="198" type="curve" smooth="yes"/>
      <point x="419" y="225"/>
      <point x="406" y="244"/>
      <point x="315" y="273" type="curve" smooth="yes"/>
      <point x="160" y="323"/>
      <point x="100" y="380"/>
      <point x="100" y="481" type="curve" smooth="yes"/>
      <point x="100" y="636"/>
      <point x="223" y="711"/>
      <point x="389" y="711" type="curve" smooth="yes"/>
      <point x="508" y="711"/>
      <point x="622" y="662"/>
      <point x="680" y="609" type="curve"/>
      <point x="559" y="466" type="line"/>
      <point x="516" y="502"/>
      <point x="441" y="544"/>
      <point x="362" y="544" type="curve" smooth="yes"/>
      <point x="322" y="544"/>
      <point x="300" y="527"/>
      <point x="300" y="506" type="curve" smooth="yes"/>
      <point x="300" y="480"/>
      <point x="312" y="465"/>
      <point x="401" y="435" type="curve" smooth="yes"/>
      <point x="563" y="381"/>
      <point x="619" y="327"/>
    </contour>
  </outline>
</glyph>
<glyph name="T" format="1">
  <advance width="666"/>
  <unicode hex="0054"/>
  <outline>
    <contour>
      <point x="672" y="531" type="line"/>
      <point x="478" y="531" type="line"/>
      <point x="384" y="0" type="line"/>
      <point x="187" y="0" type="line"/>
      <point x="281" y="531" type="line"/>
      <point x="90" y="531" type="line"/>
      <point x="120" y="700" type="line"/>
      <point x="702" y="700" type="line"/>
    </contour>
  </outline>
</glyph>
<glyph name="U" format="1">
  <advance width="744"/>
  <unicode hex="0055"/>
  <outline>
    <contour>
      <point x="684" y="299" type="line" smooth="yes"/>
      <point x="645" y="77"/>
      <point x="538" y="-11"/>
      <point x="352" y="-11" type="curve" smooth="yes"/>
      <point x="178" y="-11"/>
      <point x="35" y="77"/>
      <point x="74" y="299" type="curve" smooth="yes"/>
      <point x="144" y="700" type="line"/>
      <point x="342" y="700" type="line"/>
      <point x="272" y="299" type="line" smooth="yes"/>
      <point x="257" y="213"/>
      <point x="283" y="160"/>
      <point x="363" y="160" type="curve" smooth="yes"/>
      <point x="439" y="160"/>
      <point x="471" y="213"/>
      <point x="486" y="299" type="curve" smooth="yes"/>
      <point x="556" y="700" type="line"/>
      <point x="754" y="700" type="line"/>
    </contour>
  </outline>
</glyph>
<glyph name="V" format="1">
  <advance width="732"/>
  <unicode hex="0056"/>
  <outline>
    <contour>
      <point x="781" y="700" type="line"/>
      <point x="439" y="0" type="line"/>
      <point x="225" y="0" type="line"/>
      <point x="107" y="700" type="line"/>
      <point x="325" y="700" type="line"/>
      <point x="343" y="512" type="line" smooth="yes"/>
      <point x="351" y="425"/>
      <point x="364" y="283"/>
      <point x="365" y="216" type="curve"/>
      <point x="390" y="283"/>
      <point x="446" y="421"/>
      <point x="485" y="512" type="curve" smooth="yes"/>
      <point x="565" y="700" type="line"/>
    </contour>
  </outline>
</glyph>
<glyph name="W" format="1">
  <advance width="922"/>
  <unicode hex="0057"/>
  <outline>
    <contour>
      <point x="962" y="700" type="line"/>
      <point x="679" y="0" type="line"/>
      <point x="494" y="0" type="line"/>
      <point x="489" y="152" type="line" smooth="yes"/>
      <point x="485" y="260"/>
      <point x="484" y="391"/>
      <point x="489" y="442" type="curve"/>
      <point x="476" y="391"/>
      <point x="435" y="260"/>
      <point x="393" y="152" type="curve" smooth="yes"/>
      <point x="334" y="0" type="line"/>
      <point x="154" y="0" type="line"/>
      <point x="116" y="700" type="line"/>
      <point x="316" y="700" type="line"/>
      <point x="314" y="583" type="line" smooth="yes"/>
      <point x="312" y="484"/>
      <point x="310" y="362"/>
      <point x="303" y="279" type="curve"/>
      <point x="325" y="361"/>
      <point x="367" y="481"/>
      <point x="406" y="582" type="curve" smooth="yes"/>
      <point x="451" y="700" type="line"/>
      <point x="629" y="700" type="line"/>
      <point x="632" y="582" type="line" smooth="yes"/>
      <point x="635" y="482"/>
      <point x="635" y="361"/>
      <point x="629" y="279" type="curve"/>
      <point x="650" y="362"/>
      <point x="690" y="485"/>
      <point x="724" y="583" type="curve" smooth="yes"/>
      <point x="764" y="700" type="line"/>
    </contour>
  </outline>
</glyph>
<glyph name="X" format="1">
  <advance width="723"/>
  <unicode hex="0058"/>
  <outline>
    <contour>
      <point x="648" y="0" type="line"/>
      <point x="428" y="0" type="line"/>
      <point x="397" y="81" type="line" smooth="yes"/>
      <point x="380" y="125"/>
      <point x="363" y="172"/>
      <point x="353" y="210" type="curve"/>
      <point x="330" y="173"/>
      <point x="295" y="126"/>
      <point x="262" y="81" type="curve" smooth="yes"/>
      <point x="203" y="0" type="line"/>
      <point x="-17" y="0" type="line"/>
      <point x="274" y="354" type="line"/>
      <point x="114" y="700" type="line"/>
      <point x="334" y="700" type="line"/>
      <point x="359" y="632" type="line" smooth="yes"/>
      <point x="375" y="588"/>
      <point x="396" y="541"/>
      <point x="405" y="504" type="curve"/>
      <point x="427" y="541"/>
      <point x="462" y="587"/>
      <point x="494" y="632" type="curve" smooth="yes"/>
      <point x="543" y="700" type="line"/>
      <point x="763" y="700" type="line"/>
      <point x="486" y="358" type="line"/>
    </contour>
  </outline>
</glyph>
<glyph name="Y" format="1">
  <advance width="742"/>
  <unicode hex="0059"/>
  <outline>
    <contour>
      <point x="803" y="700" type="line"/>
      <point x="465" y="253" type="line"/>
      <point x="421" y="0" type="line"/>
      <point x="223" y="0" type="line"/>
      <point x="268" y="258" type="line"/>
      <point x="93" y="700" type="line"/>
      <point x="312" y="700" type="line"/>
      <point x="347" y="594" type="line" smooth="yes"/>
      <point x="371" y="521"/>
      <point x="388" y="444"/>
      <point x="395" y="404" type="curve"/>
      <point x="415" y="445"/>
      <point x="458" y="522"/>
      <point x="508" y="594" type="curve" smooth="yes"/>
      <point x="581" y="700" type="line"/>
    </contour>
  </outline>
</glyph>
<glyph name="Z" format="1">
  <advance width="706"/>
  <unicode hex="005A"/>
  <outline>
    <contour>
      <point x="589" y="0" type="line"/>
      <point x="19" y="0" type="line"/>
      <point x="44" y="139" type="line"/>
      <point x="295" y="389" type="line" smooth="yes"/>
      <point x="376" y="470"/>
      <point x="418" y="510"/>
      <point x="456" y="545" type="curve"/>
      <point x="402" y="543"/>
      <point x="316" y="542"/>
      <point x="250" y="542" type="curve" smooth="yes"/>
      <point x="135" y="542" type="line"/>
      <point x="163" y="700" type="line"/>
      <point x="711" y="700" type="line"/>
      <point x="686" y="561" type="line"/>
      <point x="435" y="311" type="line" smooth="yes"/>
      <point x="358" y="235"/>
      <point x="312" y="190"/>
      <point x="274" y="155" type="curve"/>
      <point x="328" y="157"/>
      <point x="418" y="158"/>
      <point x="484" y="158" type="curve" smooth="yes"/>
      <point x="617" y="158" type="line"/>
    </contour>
  </outline>
</glyph>
<glyph name="bracketleft" format="1">
  <advance width="459"/>
  <unicode hex="005B"/>
  <outline>
    <contour>
      <point x="315" y="-110" type="line"/>
      <point x="14" y="-110" type="line"/>
      <point x="156" y="700" type="line"/>
      <point x="457" y="700" type="line"/>
      <point x="431" y="553" type="line"/>
      <point x="311" y="553" type="line"/>
      <point x="221" y="37" type="line"/>
      <point x="341" y="37" type="line"/>
    </contour>
  </outline>
</glyph>
<glyph name="backslash" format="1">
  <advance width="510"/>
  <unicode hex="005C"/>
  <outline>
    <contour>
      <point x="463" y="-90" type="line"/>
      <point x="273" y="-90" type="line"/>
      <point x="77" y="790" type="line"/>
      <point x="267" y="790" type="line"/>
    </contour>
  </outline>
</glyph>
<glyph name="bracketright" format="1">
  <advance width="463"/>
  <unicode hex="005D"/>
  <outline>
    <contour>
      <point x="314" y="-110" type="line"/>
      <point x="14" y="-110" type="line"/>
      <point x="40" y="37" type="line"/>
      <point x="159" y="37" type="line"/>
      <point x="249" y="553" type="line"/>
      <point x="130" y="553" type="line"/>
      <point x="156" y="700" type="line"/>
      <point x="456" y="700" type="line"/>
    </contour>
  </outline>
</glyph>
<glyph name="asciicircum" format="1">
  <advance width="612"/>
  <unicode hex="005E"/>
  <outline>
    <contour>
      <point x="610" y="362" type="line"/>
      <point x="427" y="362" type="line"/>
      <point x="363" y="545" type="line"/>
      <point x="234" y="362" type="line"/>
      <point x="43" y="362" type="line"/>
      <point x="306" y="700" type="line"/>
      <point x="466" y="700" type="line"/>
    </contour>
  </outline>
</glyph>
<glyph name="underscore" format="1">
  <advance width="500"/>
  <unicode hex="005F"/>
  <outline>
    <contour>
      <point x="419" y="-198" type="line"/>
      <point x="-81" y="-198" type="line"/>
      <point x="-57" y="-61" type="line"/>
      <point x="443" y="-61" type="line"/>
    </contour>
  </outline>
</glyph>
<glyph name="grave" format="1">
  <advance width="500"/>
  <unicode hex="0060"/>
  <outline>
    <contour>
      <point x="434" y="595" type="line"/>
      <point x="306" y="595" type="line"/>
      <point x="177" y="755" type="line"/>
      <point x="390" y="755" type="line"/>
    </contour>
  </outline>
</glyph>
<glyph name="a" format="1">
  <advance width="554"/>
  <unicode hex="0061"/>
  <outline>
    <contour>
      <point x="456" y="0" type="line"/>
      <point x="286" y="0" type="line"/>
      <point x="292" y="38" type="line"/>
      <point x="262" y="13"/>
      <point x="220" y="-11"/>
      <point x="172" y="-11" type="curve" smooth="yes"/>
      <point x="90" y="-11"/>
      <point x="18" y="35"/>
      <point x="18" y="139" type="curve" smooth="yes"/>
      <point x="18" y="253"/>
      <point x="88" y="341"/>
      <point x="217" y="341" type="curve" smooth="yes"/>
      <point x="265" y="341"/>
      <point x="315" y="330"/>
      <point x="342" y="317" type="curve"/>
      <point x="347" y="343" type="line" smooth="yes"/>
      <point x="356" y="390"/>
      <point x="327" y="407"/>
      <point x="268" y="407" type="curve" smooth="yes"/>
      <point x="213" y="407"/>
      <point x="176" y="398"/>
      <point x="135" y="384" type="curve"/>
      <point x="109" y="503" type="line"/>
      <point x="147" y="519"/>
      <point x="204" y="536"/>
      <point x="299" y="536" type="curve" smooth="yes"/>
      <point x="446" y="536"/>
      <point x="543" y="485"/>
      <point x="514" y="325" type="curve" smooth="yes"/>
    </contour>
    <contour>
      <point x="311" y="140" type="curve"/>
      <point x="323" y="212" type="line"/>
      <point x="306" y="220"/>
      <point x="282" y="229"/>
      <point x="248" y="229" type="curve" smooth="yes"/>
      <point x="211" y="229"/>
      <point x="185" y="202"/>
      <point x="185" y="161" type="curve" smooth="yes"/>
      <point x="185" y="133"/>
      <point x="204" y="116"/>
      <point x="234" y="116" type="curve" smooth="yes"/>
      <point x="264" y="116"/>
      <point x="291" y="127"/>
    </contour>
  </outline>
</glyph>
<glyph name="b" format="1">
  <advance width="568"/>
  <unicode hex="0062"/>
  <outline>
    <contour>
      <point x="541" y="355" type="curve" smooth="yes"/>
      <point x="541" y="139"/>
      <point x="452" y="-11"/>
      <point x="321" y="-11" type="curve" smooth="yes"/>
      <point x="269" y="-11"/>
      <point x="221" y="13"/>
      <point x="196" y="35" type="curve"/>
      <point x="190" y="0" type="line"/>
      <point x="10" y="0" type="line"/>
      <point x="125" y="657" type="line"/>
      <point x="318" y="729" type="line"/>
      <point x="276" y="488" type="line"/>
      <point x="300" y="507"/>
      <point x="339" y="536"/>
      <point x="392" y="536" type="curve" smooth="yes"/>
      <point x="486" y="536"/>
      <point x="541" y="474"/>
    </contour>
    <contour>
      <point x="360" y="325" type="curve" smooth="yes"/>
      <point x="360" y="368"/>
      <point x="349" y="388"/>
      <point x="317" y="388" type="curve" smooth="yes"/>
      <point x="294" y="388"/>
      <point x="266" y="373"/>
      <point x="254" y="363" type="curve"/>
      <point x="218" y="164" type="line"/>
      <point x="235" y="149"/>
      <point x="252" y="137"/>
      <point x="281" y="137" type="curve" smooth="yes"/>
      <point x="325" y="137"/>
      <point x="360" y="214"/>
    </contour>
  </outline>
</glyph>
<glyph name="c" format="1">
  <advance width="516"/>
  <unicode hex="0063"/>
  <outline>
    <contour>
      <point x="465" y="100" type="line"/>
      <point x="418" y="40"/>
      <point x="351" y="-11"/>
      <point x="250" y="-11" type="curve" smooth="yes"/>
      <point x="126" y="-11"/>
      <point x="29" y="56"/>
      <point x="29" y="211" type="curve" smooth="yes"/>
      <point x="29" y="387"/>
      <point x="128" y="536"/>
      <point x="303" y="536" type="curve" smooth="yes"/>
      <point x="402" y="536"/>
      <point x="470" y="501"/>
      <point x="510" y="403" type="curve"/>
      <point x="369" y="318" type="line"/>
      <point x="353" y="367"/>
      <point x="337" y="390"/>
      <point x="299" y="390" type="curve" smooth="yes"/>
      <point x="240" y="390"/>
      <point x="209" y="301"/>
      <point x="209" y="218" type="curve" smooth="yes"/>
      <point x="209" y="167"/>
      <point x="226" y="135"/>
      <point x="268" y="135" type="curve" smooth="yes"/>
      <point x="303" y="135"/>
      <point x="332" y="161"/>
      <point x="363" y="199" type="curve"/>
    </contour>
  </outline>
</glyph>
<glyph name="e" format="1">
  <advance width="544"/>
  <unicode hex="0065"/>
  <outline>
    <contour>
      <point x="510" y="325" type="curve" smooth="yes"/>
      <point x="510" y="279"/>
      <point x="502" y="236"/>
      <point x="494" y="211" type="curve"/>
      <point x="191" y="211" type="line"/>
      <point x="187" y="153"/>
      <point x="227" y="127"/>
      <point x="276" y="127" type="curve" smooth="yes"/>
      <point x="322" y="127"/>
      <point x="353" y="134"/>
      <point x="403" y="158" type="curve"/>
      <point x="452" y="39" type="line"/>
      <point x="388" y="6"/>
      <point x="325" y="-11"/>
      <point x="255" y="-11" type="curve" smooth="yes"/>
      <point x="108" y="-11"/>
      <point x="29" y="80"/>
      <point x="29" y="217" type="curve" smooth="yes"/>
      <point x="29" y="398"/>
      <point x="139" y="536"/>
      <point x="301" y="536" type="curve" smooth="yes"/>
      <point x="445" y="536"/>
      <point x="510" y="451"/>
    </contour>
    <contour>
      <point x="356" y="323" type="line"/>
      <point x="357" y="376"/>
      <point x="341" y="403"/>
      <point x="288" y="403" type="curve" smooth="yes"/>
      <point x="247" y="403"/>
      <point x="224" y="375"/>
      <point x="209" y="323" type="curve"/>
    </contour>
  </outline>
</glyph>
<glyph name="f" format="1">
  <advance width="383"/>
  <unicode hex="0066"/>
  <outline>
    <contour>
      <point x="407" y="588" type="line"/>
      <point x="393" y="595"/>
      <point x="373" y="599"/>
      <point x="354" y="599" type="curve" smooth="yes"/>
      <point x="332" y="599"/>
      <point x="324" y="592"/>
      <point x="318" y="559" type="curve" smooth="yes"/>
      <point x="312" y="525" type="line"/>
      <point x="388" y="525" type="line"/>
      <point x="363" y="384" type="line"/>
      <point x="290" y="384" type="line"/>
      <point x="223" y="0" type="line"/>
      <point x="43" y="0" type="line"/>
      <point x="111" y="384" type="line"/>
      <point x="57" y="384" type="line"/>
      <point x="82" y="525" type="line"/>
      <point x="136" y="525" type="line"/>
      <point x="147" y="586" type="line" smooth="yes"/>
      <point x="164" y="681"/>
      <point x="202" y="726"/>
      <point x="304" y="726" type="curve" smooth="yes"/>
      <point x="351" y="726"/>
      <point x="403" y="712"/>
      <point x="427" y="698" type="curve"/>
    </contour>
  </outline>
</glyph>
<glyph name="g" format="1">
  <advance width="568"/>
  <unicode hex="0067"/>
  <outline>
    <contour>
      <point x="558" y="525" type="line"/>
      <point x="476" y="58" type="line" smooth="yes"/>
      <point x="444" y="-122"/>
      <point x="346" y="-180"/>
      <point x="160" y="-190" type="curve"/>
      <point x="113" y="-84" type="line"/>
      <point x="245" y="-72"/>
      <point x="278" y="-51"/>
      <point x="289" y="24" type="curve" smooth="yes"/>
      <point x="291" y="38" type="line"/>
      <point x="267" y="19"/>
      <point x="228" y="-10"/>
      <point x="175" y="-10" type="curve" smooth="yes"/>
      <point x="81" y="-10"/>
      <point x="26" y="52"/>
      <point x="26" y="171" type="curve" smooth="yes"/>
      <point x="26" y="387"/>
      <point x="115" y="537"/>
      <point x="246" y="537" type="curve" smooth="yes"/>
      <point x="298" y="537"/>
      <point x="346" y="513"/>
      <point x="371" y="491" type="curve"/>
      <point x="377" y="525" type="line"/>
    </contour>
    <contour>
      <point x="207" y="201" type="curve" smooth="yes"/>
      <point x="207" y="158"/>
      <point x="218" y="138"/>
      <point x="250" y="138" type="curve" smooth="yes"/>
      <point x="273" y="138"/>
      <point x="301" y="153"/>
      <point x="313" y="163" type="curve"/>
      <point x="349" y="362" type="line"/>
      <point x="332" y="377"/>
      <point x="315" y="389"/>
      <point x="286" y="389" type="curve" smooth="yes"/>
      <point x="242" y="389"/>
      <point x="207" y="312"/>
    </contour>
  </outline>
</glyph>
<glyph name="h" format="1">
  <advance width="586"/>
  <unicode hex="0068"/>
  <outline>
    <contour>
      <point x="487" y="0" type="line"/>
      <point x="306" y="0" type="line"/>
      <point x="359" y="298" type="line" smooth="yes"/>
      <point x="361" y="309"/>
      <point x="362" y="321"/>
      <point x="362" y="330" type="curve" smooth="yes"/>
      <point x="362" y="367"/>
      <point x="342" y="384"/>
      <point x="312" y="384" type="curve" smooth="yes"/>
      <point x="274" y="384"/>
      <point x="254" y="366"/>
      <point x="242" y="300" type="curve" smooth="yes"/>
      <point x="189" y="0" type="line"/>
      <point x="9" y="0" type="line"/>
      <point x="125" y="657" type="line"/>
      <point x="318" y="729" type="line"/>
      <point x="276" y="490" type="line"/>
      <point x="302" y="511"/>
      <point x="346" y="536"/>
      <point x="398" y="536" type="curve" smooth="yes"/>
      <point x="494" y="536"/>
      <point x="549" y="488"/>
      <point x="549" y="383" type="curve" smooth="yes"/>
      <point x="549" y="361"/>
      <point x="545" y="329"/>
      <point x="541" y="304" type="curve" smooth="yes"/>
    </contour>
  </outline>
</glyph>
<glyph name="i" format="1">
  <advance width="302"/>
  <unicode hex="0069"/>
  <outline>
    <contour>
      <point x="115" y="644" type="curve" smooth="yes"/>
      <point x="115" y="699"/>
      <point x="163" y="738"/>
      <point x="224" y="738" type="curve" smooth="yes"/>
      <point x="286" y="738"/>
      <point x="325" y="706"/>
      <point x="325" y="658" type="curve" smooth="yes"/>
      <point x="325" y="603"/>
      <point x="277" y="564"/>
      <point x="216" y="564" type="curve" smooth="yes"/>
      <point x="154" y="564"/>
      <point x="115" y="596"/>
    </contour>
    <contour>
      <point x="194" y="0" type="line"/>
      <point x="14" y="0" type="line"/>
      <point x="107" y="525" type="line"/>
      <point x="287" y="525" type="line"/>
    </contour>
  </outline>
</glyph>
<glyph name="j" format="1">
  <advance width="306"/>
  <unicode hex="006A"/>
  <outline>
    <contour>
      <point x="115" y="644" type="curve" smooth="yes"/>
      <point x="115" y="699"/>
      <point x="163" y="738"/>
      <point x="224" y="738" type="curve" smooth="yes"/>
      <point x="286" y="738"/>
      <point x="325" y="706"/>
      <point x="325" y="658" type="curve" smooth="yes"/>
      <point x="325" y="603"/>
      <point x="277" y="564"/>
      <point x="216" y="564" type="curve" smooth="yes"/>
      <point x="154" y="564"/>
      <point x="115" y="596"/>
    </contour>
    <contour>
      <point x="201" y="32" type="line" smooth="yes"/>
      <point x="172" y="-132"/>
      <point x="86" y="-184"/>
      <point x="-74" y="-193" type="curve"/>
      <point x="-113" y="-69" type="line"/>
      <point x="-12" y="-57"/>
      <point x="10" y="-31"/>
      <point x="22" y="40" type="curve" smooth="yes"/>
      <point x="107" y="525" type="line"/>
      <point x="287" y="525" type="line"/>
    </contour>
  </outline>
</glyph>
<glyph name="k" format="1">
  <advance width="570"/>
  <unicode hex="006B"/>
  <outline>
    <contour>
      <point x="501" y="0" type="line"/>
      <point x="312" y="0" type="line"/>
      <point x="275" y="219" type="line"/>
      <point x="218" y="159" type="line"/>
      <point x="190" y="0" type="line"/>
      <point x="10" y="0" type="line"/>
      <point x="126" y="657" type="line"/>
      <point x="318" y="729" type="line"/>
      <point x="281" y="515" type="line" smooth="yes"/>
      <point x="275" y="479"/>
      <point x="256" y="393"/>
      <point x="249" y="360" type="curve"/>
      <point x="267" y="385"/>
      <point x="325" y="449"/>
      <point x="351" y="480" type="curve" smooth="yes"/>
      <point x="389" y="525" type="line"/>
      <point x="594" y="525" type="line"/>
      <point x="431" y="363" type="line"/>
    </contour>
  </outline>
</glyph>
<glyph name="l" format="1">
  <advance width="302"/>
  <unicode hex="006C"/>
  <outline>
    <contour>
      <point x="195" y="0" type="line"/>
      <point x="15" y="0" type="line"/>
      <point x="131" y="657" type="line"/>
      <point x="324" y="729" type="line"/>
    </contour>
  </outline>
</glyph>
<glyph name="m" format="1">
  <advance width="880"/>
  <unicode hex="006D"/>
  <outline>
    <contour>
      <point x="598" y="0" type="line"/>
      <point x="651" y="298" type="line" smooth="yes"/>
      <point x="653" y="312"/>
      <point x="655" y="323"/>
      <point x="655" y="333" type="curve" smooth="yes"/>
      <point x="655" y="372"/>
      <point x="633" y="384"/>
      <point x="605" y="384" type="curve" smooth="yes"/>
      <point x="570" y="384"/>
      <point x="549" y="363"/>
      <point x="538" y="300" type="curve" smooth="yes"/>
      <point x="485" y="0" type="line"/>
      <point x="302" y="0" type="line"/>
      <point x="355" y="298" type="line" smooth="yes"/>
      <point x="357" y="311"/>
      <point x="358" y="322"/>
      <point x="358" y="331" type="curve" smooth="yes"/>
      <point x="358" y="369"/>
      <point x="338" y="384"/>
      <point x="309" y="384" type="curve" smooth="yes"/>
      <point x="274" y="384"/>
      <point x="253" y="364"/>
      <point x="242" y="300" type="curve" smooth="yes"/>
      <point x="189" y="0" type="line"/>
      <point x="9" y="0" type="line"/>
      <point x="102" y="525" type="line"/>
      <point x="282" y="525" type="line"/>
      <point x="276" y="490" type="line"/>
      <point x="304" y="511"/>
      <point x="352" y="536"/>
      <point x="405" y="536" type="curve" smooth="yes"/>
      <point x="468" y="536"/>
      <point x="507" y="509"/>
      <point x="533" y="476" type="curve"/>
      <point x="570" y="505"/>
      <point x="618" y="536"/>
      <point x="687" y="536" type="curve" smooth="yes"/>
      <point x="789" y="536"/>
      <point x="840" y="485"/>
      <point x="840" y="386" type="curve" smooth="yes"/>
      <point x="840" y="363"/>
      <point x="837" y="335"/>
      <point x="832" y="308" type="curve" smooth="yes"/>
      <point x="776" y="0" type="line"/>
    </contour>
  </outline>
</glyph>
<glyph name="o" format="1">
  <advance width="565"/>
  <unicode hex="006F"/>
  <outline>
    <contour>
      <point x="255" y="-11" type="curve" smooth="yes"/>
      <point x="119" y="-11"/>
      <point x="29" y="74"/>
      <point x="29" y="210" type="curve" smooth="yes"/>
      <point x="29" y="393"/>
      <point x="139" y="536"/>
      <point x="309" y="536" type="curve" smooth="yes"/>
      <point x="445" y="536"/>
      <point x="535" y="451"/>
      <point x="535" y="315" type="curve" smooth="yes"/>
      <point x="535" y="132"/>
      <point x="425" y="-11"/>
    </contour>
    <contour>
      <point x="262" y="135" type="curve" smooth="yes"/>
      <point x="329" y="135"/>
      <point x="356" y="229"/>
      <point x="356" y="308" type="curve" smooth="yes"/>
      <point x="356" y="363"/>
      <point x="338" y="390"/>
      <point x="302" y="390" type="curve" smooth="yes"/>
      <point x="235" y="390"/>
      <point x="208" y="296"/>
      <point x="208" y="217" type="curve" smooth="yes"/>
      <point x="208" y="162"/>
      <point x="226" y="135"/>
    </contour>
  </outline>
</glyph>
<glyph name="r" format="1">
  <advance width="444"/>
  <unicode hex="0072"/>
  <outline>
    <contour>
      <point x="473" y="508" type="curve"/>
      <point x="399" y="327" type="line"/>
      <point x="385" y="344"/>
      <point x="355" y="371"/>
      <point x="314" y="371" type="curve" smooth="yes"/>
      <point x="272" y="371"/>
      <point x="250" y="350"/>
      <point x="239" y="286" type="curve" smooth="yes"/>
      <point x="189" y="0" type="line"/>
      <point x="9" y="0" type="line"/>
      <point x="102" y="525" type="line"/>
      <point x="282" y="525" type="line"/>
      <point x="276" y="494" type="line"/>
      <point x="301" y="514"/>
      <point x="338" y="536"/>
      <point x="384" y="536" type="curve" smooth="yes"/>
      <point x="428" y="536"/>
      <point x="455" y="522"/>
    </contour>
  </outline>
</glyph>
<glyph name="s" format="1">
  <advance width="523"/>
  <unicode hex="0073"/>
  <outline>
    <contour>
      <point x="461" y="174" type="curve" smooth="yes"/>
      <point x="461" y="62"/>
      <point x="392" y="-11"/>
      <point x="239" y="-11" type="curve" smooth="yes"/>
      <point x="147" y="-11"/>
      <point x="75" y="13"/>
      <point x="2" y="48" type="curve"/>
      <point x="68" y="179" type="line"/>
      <point x="133" y="143"/>
      <point x="199" y="122"/>
      <point x="247" y="122" type="curve" smooth="yes"/>
      <point x="277" y="122"/>
      <point x="289" y="132"/>
      <point x="289" y="147" type="curve" smooth="yes"/>
      <point x="289" y="163"/>
      <point x="284" y="169"/>
      <point x="255" y="179" type="curve" smooth="yes"/>
      <point x="104" y="233"/>
      <point x="68" y="278"/>
      <point x="68" y="352" type="curve" smooth="yes"/>
      <point x="68" y="458"/>
      <point x="138" y="536"/>
      <point x="285" y="536" type="curve" smooth="yes"/>
      <point x="376" y="536"/>
      <point x="448" y="514"/>
      <point x="506" y="486" type="curve"/>
      <point x="442" y="350" type="line"/>
      <point x="381" y="383"/>
      <point x="322" y="403"/>
      <point x="275" y="403" type="curve" smooth="yes"/>
      <point x="252" y="403"/>
      <point x="240" y="394"/>
      <point x="240" y="378" type="curve" smooth="yes"/>
      <point x="240" y="362"/>
      <point x="246" y="355"/>
      <point x="283" y="342" type="curve" smooth="yes"/>
      <point x="427" y="291"/>
      <point x="461" y="246"/>
    </contour>
  </outline>
</glyph>
<glyph name="t" format="1">
  <advance width="450"/>
  <unicode hex="0074"/>
  <outline>
    <contour>
      <point x="376" y="162" type="curve"/>
      <point x="326" y="8" type="line"/>
      <point x="295" y="-5"/>
      <point x="257" y="-11"/>
      <point x="219" y="-11" type="curve" smooth="yes"/>
      <point x="123" y="-11"/>
      <point x="80" y="24"/>
      <point x="80" y="106" type="curve" smooth="yes"/>
      <point x="80" y="121"/>
      <point x="82" y="138"/>
      <point x="85" y="156" type="curve" smooth="yes"/>
      <point x="125" y="384" type="line"/>
      <point x="50" y="384" type="line"/>
      <point x="75" y="525" type="line"/>
      <point x="150" y="525" type="line"/>
      <point x="173" y="658" type="line"/>
      <point x="366" y="729" type="line"/>
      <point x="330" y="525" type="line"/>
      <point x="439" y="525" type="line"/>
      <point x="414" y="384" type="line"/>
      <point x="305" y="384" type="line"/>
      <point x="272" y="194" type="line" smooth="yes"/>
      <point x="271" y="187"/>
      <point x="270" y="180"/>
      <point x="270" y="175" type="curve" smooth="yes"/>
      <point x="270" y="150"/>
      <point x="283" y="142"/>
      <point x="311" y="142" type="curve" smooth="yes"/>
      <point x="333" y="142"/>
      <point x="359" y="151"/>
    </contour>
  </outline>
</glyph>
<glyph name="u" format="1">
  <advance width="586"/>
  <unicode hex="0075"/>
  <outline>
    <contour>
      <point x="99" y="525" type="line"/>
      <point x="280" y="525" type="line"/>
      <point x="227" y="227" type="line" smooth="yes"/>
      <point x="225" y="216"/>
      <point x="224" y="204"/>
      <point x="224" y="195" type="curve" smooth="yes"/>
      <point x="224" y="158"/>
      <point x="244" y="141"/>
      <point x="274" y="141" type="curve" smooth="yes"/>
      <point x="312" y="141"/>
      <point x="332" y="159"/>
      <point x="344" y="225" type="curve" smooth="yes"/>
      <point x="397" y="525" type="line"/>
      <point x="577" y="525" type="line"/>
      <point x="484" y="0" type="line"/>
      <point x="304" y="0" type="line"/>
      <point x="310" y="35" type="line"/>
      <point x="284" y="14"/>
      <point x="240" y="-11"/>
      <point x="188" y="-11" type="curve" smooth="yes"/>
      <point x="92" y="-11"/>
      <point x="37" y="37"/>
      <point x="37" y="142" type="curve" smooth="yes"/>
      <point x="37" y="164"/>
      <point x="41" y="196"/>
      <point x="45" y="221" type="curve" smooth="yes"/>
    </contour>
  </outline>
</glyph>
<glyph name="v" format="1">
  <advance width="567"/>
  <unicode hex="0076"/>
  <outline>
    <contour>
      <point x="598" y="525" type="line"/>
      <point x="337" y="0" type="line"/>
      <point x="150" y="0" type="line"/>
      <point x="61" y="525" type="line"/>
      <point x="252" y="525" type="line"/>
      <point x="264" y="332" type="line" smooth="yes"/>
      <point x="267" y="288"/>
      <point x="273" y="225"/>
      <point x="272" y="175" type="curve"/>
      <point x="286" y="226"/>
      <point x="311" y="288"/>
      <point x="329" y="332" type="curve" smooth="yes"/>
      <point x="408" y="525" type="line"/>
    </contour>
  </outline>
</glyph>
<glyph name="w" format="1">
  <advance width="737"/>
  <unicode hex="0077"/>
  <outline>
    <contour>
      <point x="767" y="525" type="line"/>
      <point x="538" y="0" type="line"/>
      <point x="383" y="0" type="line"/>
      <point x="382" y="107" type="line" smooth="yes"/>
      <point x="381" y="167"/>
      <point x="380" y="283"/>
      <point x="381" y="321" type="curve"/>
      <point x="367" y="283"/>
      <point x="325" y="169"/>
      <point x="302" y="105" type="curve" smooth="yes"/>
      <point x="264" y="0" type="line"/>
      <point x="114" y="0" type="line"/>
      <point x="64" y="525" type="line"/>
      <point x="238" y="525" type="line"/>
      <point x="239" y="447" type="line" smooth="yes"/>
      <point x="240" y="387"/>
      <point x="237" y="271"/>
      <point x="236" y="233" type="curve"/>
      <point x="250" y="271"/>
      <point x="287" y="387"/>
      <point x="312" y="449" type="curve" smooth="yes"/>
      <point x="343" y="525" type="line"/>
      <point x="491" y="525" type="line"/>
      <point x="493" y="449" type="line" smooth="yes"/>
      <point x="495" y="386"/>
      <point x="494" y="271"/>
      <point x="494" y="233" type="curve"/>
      <point x="507" y="271"/>
      <point x="545" y="387"/>
      <point x="567" y="447" type="curve" smooth="yes"/>
      <point x="595" y="525" type="line"/>
    </contour>
  </outline>
</glyph>
<glyph name="x" format="1">
  <advance width="570"/>
  <unicode hex="0078"/>
  <outline>
    <contour>
      <point x="318" y="408" type="curve"/>
      <point x="336" y="439"/>
      <point x="361" y="477"/>
      <point x="382" y="506" type="curve" smooth="yes"/>
      <point x="396" y="525" type="line"/>
      <point x="582" y="525" type="line"/>
      <point x="377" y="282" type="line"/>
      <point x="510" y="0" type="line"/>
      <point x="314" y="0" type="line"/>
      <point x="306" y="22" type="line" smooth="yes"/>
      <point x="288" y="72"/>
      <point x="272" y="112"/>
      <point x="259" y="149" type="curve"/>
      <point x="238" y="114"/>
      <point x="204" y="63"/>
      <point x="173" y="23" type="curve" smooth="yes"/>
      <point x="155" y="0" type="line"/>
      <point x="-31" y="0" type="line"/>
      <point x="199" y="274" type="line"/>
      <point x="82" y="525" type="line"/>
      <point x="278" y="525" type="line"/>
      <point x="286" y="505" type="line" smooth="yes"/>
      <point x="298" y="475"/>
      <point x="308" y="442"/>
    </contour>
  </outline>
</glyph>
<glyph name="y" format="1">
  <advance width="586"/>
  <unicode hex="0079"/>
  <outline>
    <contour>
      <point x="617" y="525" type="line"/>
      <point x="240" y="-185" type="line"/>
      <point x="68" y="-185" type="line"/>
      <point x="163" y="-22" type="line"/>
      <point x="61" y="525" type="line"/>
      <point x="252" y="525" type="line"/>
      <point x="267" y="338" type="line" smooth="yes"/>
      <point x="271" y="294"/>
      <point x="277" y="201"/>
      <point x="274" y="151" type="curve"/>
      <point x="290" y="201"/>
      <point x="328" y="294"/>
      <point x="348" y="340" type="curve" smooth="yes"/>
      <point x="428" y="525" type="line"/>
    </contour>
  </outline>
</glyph>
<glyph name="z" format="1">
  <advance width="561"/>
  <unicode hex="007A"/>
  <outline>
    <contour>
      <point x="458" y="0" type="line"/>
      <point x="6" y="0" type="line"/>
      <point x="28" y="125" type="line"/>
      <point x="163" y="250" type="line" smooth="yes"/>
      <point x="216" y="299"/>
      <point x="283" y="356"/>
      <point x="315" y="383" type="curve"/>
      <point x="282" y="382"/>
      <point x="226" y="379"/>
      <point x="182" y="379" type="curve" smooth="yes"/>
      <point x="85" y="379" type="line"/>
      <point x="110" y="525" type="line"/>
      <point x="550" y="525" type="line"/>
      <point x="528" y="400" type="line"/>
      <point x="396" y="275" type="line" smooth="yes"/>
      <point x="345" y="227"/>
      <point x="276" y="169"/>
      <point x="243" y="142" type="curve"/>
      <point x="276" y="143"/>
      <point x="335" y="146"/>
      <point x="379" y="146" type="curve" smooth="yes"/>
      <point x="484" y="146" type="line"/>
    </contour>
  </outline>
</glyph>
<glyph name="braceleft" format="1">
  <advance width="506"/>
  <unicode hex="007B"/>
  <outline>
    <contour>
      <point x="386" y="-110" type="line"/>
      <point x="186" y="-98"/>
      <point x="87" y="-29"/>
      <point x="112" y="108" type="curve" smooth="yes"/>
      <point x="124" y="174" type="line" smooth="yes"/>
      <point x="131" y="212"/>
      <point x="112" y="223"/>
      <point x="74" y="223" type="curve" smooth="yes"/>
      <point x="40" y="223" type="line"/>
      <point x="66" y="373" type="line"/>
      <point x="100" y="373" type="line" smooth="yes"/>
      <point x="149" y="373"/>
      <point x="162" y="384"/>
      <point x="168" y="422" type="curve" smooth="yes"/>
      <point x="181" y="505" type="line" smooth="yes"/>
      <point x="202" y="642"/>
      <point x="283" y="705"/>
      <point x="530" y="705" type="curve"/>
      <point x="509" y="589" type="line"/>
      <point x="401" y="577"/>
      <point x="388" y="546"/>
      <point x="375" y="469" type="curve" smooth="yes"/>
      <point x="371" y="445" type="line" smooth="yes"/>
      <point x="351" y="325"/>
      <point x="309" y="307"/>
      <point x="219" y="298" type="curve"/>
      <point x="296" y="284"/>
      <point x="339" y="270"/>
      <point x="319" y="150" type="curve" smooth="yes"/>
      <point x="315" y="126" type="line" smooth="yes"/>
      <point x="302" y="49"/>
      <point x="313" y="19"/>
      <point x="407" y="6" type="curve"/>
    </contour>
  </outline>
</glyph>
<glyph name="bar" format="1">
  <advance width="324"/>
  <unicode hex="007C"/>
  <outline>
    <contour>
      <point x="172" y="-185" type="line"/>
      <point x="-6" y="-185" type="line"/>
      <point x="168" y="800" type="line"/>
      <point x="346" y="800" type="line"/>
    </contour>
  </outline>
</glyph>
<glyph name="braceright" format="1">
  <advance width="506"/>
  <unicode hex="007D"/>
  <outline>
    <contour>
      <point x="133" y="705" type="line"/>
      <point x="333" y="693"/>
      <point x="432" y="624"/>
      <point x="407" y="487" type="curve" smooth="yes"/>
      <point x="395" y="421" type="line" smooth="yes"/>
      <point x="388" y="383"/>
      <point x="407" y="372"/>
      <point x="445" y="372" type="curve" smooth="yes"/>
      <point x="479" y="372" type="line"/>
      <point x="453" y="222" type="line"/>
      <point x="419" y="222" type="line" smooth="yes"/>
      <point x="370" y="222"/>
      <point x="357" y="211"/>
      <point x="351" y="173" type="curve" smooth="yes"/>
      <point x="338" y="90" type="line" smooth="yes"/>
      <point x="317" y="-47"/>
      <point x="236" y="-110"/>
      <point x="-11" y="-110" type="curve"/>
      <point x="10" y="6" type="line"/>
      <point x="118" y="18"/>
      <point x="131" y="48"/>
      <point x="144" y="126" type="curve" smooth="yes"/>
      <point x="148" y="150" type="line" smooth="yes"/>
      <point x="168" y="272"/>
      <point x="210" y="288"/>
      <point x="300" y="297" type="curve"/>
      <point x="223" y="311"/>
      <point x="180" y="323"/>
      <point x="200" y="445" type="curve" smooth="yes"/>
      <point x="204" y="469" type="line" smooth="yes"/>
      <point x="217" y="547"/>
      <point x="206" y="576"/>
      <point x="112" y="589" type="curve"/>
    </contour>
  </outline>
</glyph>
<glyph name="asciitilde" format="1">
  <advance width="578"/>
  <unicode hex="007E"/>
  <outline>
    <contour>
      <point x="563" y="437" type="line"/>
      <point x="488" y="308"/>
      <point x="440" y="262"/>
      <point x="376" y="262" type="curve" smooth="yes"/>
      <point x="339" y="262"/>
      <point x="314" y="277"/>
      <point x="293" y="293" type="curve" smooth="yes"/>
      <point x="269" y="310"/>
      <point x="251" y="329"/>
      <point x="226" y="329" type="curve" smooth="yes"/>
      <point x="206" y="329"/>
      <point x="197" y="321"/>
      <point x="153" y="257" type="curve"/>
      <point x="52" y="305" type="line"/>
      <point x="128" y="434"/>
      <point x="178" y="480"/>
      <point x="242" y="480" type="curve" smooth="yes"/>
      <point x="284" y="480"/>
      <point x="310" y="461"/>
      <point x="333" y="443" type="curve" smooth="yes"/>
      <point x="352" y="427"/>
      <point x="369" y="413"/>
      <point x="391" y="413" type="curve" smooth="yes"/>
      <point x="411" y="413"/>
      <point x="419" y="421"/>
      <point x="463" y="485" type="curve"/>
    </contour>
  </outline>
</glyph>
<glyph name="exclamdown" format="1">
  <advance width="350"/>
  <unicode hex="00A1"/>
  <outline>
    <contour>
      <point x="338" y="607" type="curve" smooth="yes"/>
      <point x="338" y="548"/>
      <point x="294" y="505"/>
      <point x="234" y="505" type="curve" smooth="yes"/>
      <point x="174" y="505"/>
      <point x="130" y="548"/>
      <point x="130" y="607" type="curve" smooth="yes"/>
      <point x="130" y="666"/>
      <point x="174" y="711"/>
      <point x="234" y="711" type="curve" smooth="yes"/>
      <point x="294" y="711"/>
      <point x="338" y="666"/>
    </contour>
    <contour>
      <point x="227" y="0" type="line"/>
      <point x="29" y="0" type="line"/>
      <point x="74" y="250" type="line"/>
      <point x="142" y="450" type="line"/>
      <point x="274" y="450" type="line"/>
      <point x="272" y="250" type="line"/>
    </contour>
  </outline>
</glyph>
<glyph name="cent" format="1">
  <advance width="516"/>
  <unicode hex="00A2"/>
  <outline>
    <contour>
      <point x="243" y="618" type="curve"/>
      <point x="260" y="711" type="line"/>
      <point x="435" y="711" type="line"/>
      <point x="418" y="613" type="line"/>
      <point x="465" y="594"/>
      <point x="501" y="557"/>
      <point x="527" y="496" type="curve"/>
      <point x="386" y="409" type="line"/>
      <point x="373" y="456"/>
      <point x="354" y="483"/>
      <point x="316" y="483" type="curve" smooth="yes"/>
      <point x="253" y="483"/>
      <point x="226" y="389"/>
      <point x="226" y="313" type="curve" smooth="yes"/>
      <point x="226" y="264"/>
      <point x="240" y="228"/>
      <point x="285" y="228" type="curve" smooth="yes"/>
      <point x="319" y="228"/>
      <point x="354" y="256"/>
      <point x="380" y="291" type="curve"/>
      <point x="479" y="196" type="line"/>
      <point x="427" y="134"/>
      <point x="384" y="100"/>
      <point x="324" y="87" type="curve"/>
      <point x="307" y="-11" type="line"/>
      <point x="132" y="-11" type="line"/>
      <point x="153" y="106" type="line"/>
      <point x="83" y="141"/>
      <point x="45" y="208"/>
      <point x="45" y="308" type="curve" smooth="yes"/>
      <point x="45" y="437"/>
      <point x="110" y="582"/>
    </contour>
  </outline>
</glyph>
<glyph name="sterling" format="1">
  <advance width="690"/>
  <unicode hex="00A3"/>
  <outline>
    <contour>
      <point x="167" y="259" type="curve"/>
      <point x="80" y="259" type="line"/>
      <point x="104" y="394" type="line"/>
      <point x="185" y="394" type="line"/>
      <point x="172" y="441"/>
      <point x="150" y="468"/>
      <point x="150" y="532" type="curve" smooth="yes"/>
      <point x="150" y="634"/>
      <point x="241" y="711"/>
      <point x="404" y="711" type="curve" smooth="yes"/>
      <point x="511" y="711"/>
      <point x="626" y="680"/>
      <point x="710" y="614" type="curve"/>
      <point x="603" y="479" type="line"/>
      <point x="550" y="524"/>
      <point x="479" y="553"/>
      <point x="411" y="553" type="curve" smooth="yes"/>
      <point x="360" y="553"/>
      <point x="336" y="531"/>
      <point x="336" y="495" type="curve" smooth="yes"/>
      <point x="336" y="457"/>
      <point x="353" y="438"/>
      <point x="365" y="394" type="curve"/>
      <point x="518" y="394" type="line"/>
      <point x="494" y="259" type="line"/>
      <point x="356" y="259" type="line"/>
      <point x="336" y="206"/>
      <point x="302" y="166"/>
      <point x="273" y="148" type="curve"/>
      <point x="608" y="148" type="line"/>
      <point x="582" y="0" type="line"/>
      <point x="34" y="0" type="line"/>
      <point x="59" y="140" type="line"/>
      <point x="110" y="172"/>
      <point x="145" y="205"/>
    </contour>
  </outline>
</glyph>
<glyph name="yen" format="1">
  <advance width="722"/>
  <unicode hex="00A5"/>
  <outline>
    <contour>
      <point x="782" y="700" type="line"/>
      <point x="451" y="256" type="line"/>
      <point x="448" y="239" type="line"/>
      <point x="606" y="239" type="line"/>
      <point x="581" y="94" type="line"/>
      <point x="423" y="94" type="line"/>
      <point x="406" y="0" type="line"/>
      <point x="220" y="0" type="line"/>
      <point x="237" y="94" type="line"/>
      <point x="79" y="94" type="line"/>
      <point x="104" y="239" type="line"/>
      <point x="262" y="239" type="line"/>
      <point x="265" y="253" type="line"/>
      <point x="92" y="700" type="line"/>
      <point x="315" y="700" type="line"/>
      <point x="346" y="594" type="line" smooth="yes"/>
      <point x="368" y="519"/>
      <point x="385" y="454"/>
      <point x="391" y="413" type="curve"/>
      <point x="411" y="455"/>
      <point x="443" y="522"/>
      <point x="490" y="594" type="curve" smooth="yes"/>
      <point x="559" y="700" type="line"/>
    </contour>
  </outline>
</glyph>
<glyph name="section" format="1">
  <advance width="718"/>
  <unicode hex="00A7"/>
  <outline>
    <contour>
      <point x="199" y="459" type="curve"/>
      <point x="191" y="475"/>
      <point x="186" y="504"/>
      <point x="186" y="528" type="curve" smooth="yes"/>
      <point x="186" y="628"/>
      <point x="263" y="711"/>
      <point x="413" y="711" type="curve" smooth="yes"/>
      <point x="506" y="711"/>
      <point x="605" y="678"/>
      <point x="665" y="632" type="curve"/>
      <point x="582" y="502" type="line"/>
      <point x="530" y="535"/>
      <point x="453" y="567"/>
      <point x="396" y="567" type="curve" smooth="yes"/>
      <point x="372" y="567"/>
      <point x="357" y="555"/>
      <point x="357" y="541" type="curve" smooth="yes"/>
      <point x="357" y="526"/>
      <point x="364" y="515"/>
      <point x="428" y="488" type="curve" smooth="yes"/>
      <point x="621" y="406"/>
      <point x="667" y="360"/>
      <point x="667" y="277" type="curve" smooth="yes"/>
      <point x="667" y="190"/>
      <point x="616" y="137"/>
      <point x="524" y="95" type="curve"/>
      <point x="533" y="75"/>
      <point x="537" y="50"/>
      <point x="537" y="26" type="curve" smooth="yes"/>
      <point x="537" y="-74"/>
      <point x="460" y="-157"/>
      <point x="310" y="-157" type="curve" smooth="yes"/>
      <point x="217" y="-157"/>
      <point x="118" y="-124"/>
      <point x="58" y="-78" type="curve"/>
      <point x="141" y="52" type="line"/>
      <point x="193" y="19"/>
      <point x="269" y="-13"/>
      <point x="328" y="-13" type="curve" smooth="yes"/>
      <point x="351" y="-13"/>
      <point x="366" y="-1"/>
      <point x="366" y="13" type="curve" smooth="yes"/>
      <point x="366" y="29"/>
      <point x="358" y="39"/>
      <point x="295" y="66" type="curve" smooth="yes"/>
      <point x="102" y="148"/>
      <point x="56" y="194"/>
      <point x="56" y="277" type="curve" smooth="yes"/>
      <point x="56" y="364"/>
      <point x="107" y="417"/>
    </contour>
    <contour>
      <point x="429" y="186" type="curve"/>
      <point x="469" y="205"/>
      <point x="485" y="228"/>
      <point x="485" y="249" type="curve" smooth="yes"/>
      <point x="485" y="275"/>
      <point x="473" y="290"/>
      <point x="369" y="334" type="curve" smooth="yes"/>
      <point x="339" y="347"/>
      <point x="319" y="355"/>
      <point x="294" y="368" type="curve"/>
      <point x="254" y="349"/>
      <point x="238" y="326"/>
      <point x="238" y="305" type="curve" smooth="yes"/>
      <point x="238" y="279"/>
      <point x="250" y="264"/>
      <point x="354" y="220" type="curve" smooth="yes"/>
      <point x="384" y="207"/>
      <point x="404" y="199"/>
    </contour>
  </outline>
</glyph>
<glyph name="dieresis" format="1">
  <advance width="500"/>
  <unicode hex="00A8"/>
  <outline>
    <contour>
      <point x="534" y="686" type="curve" smooth="yes"/>
      <point x="534" y="640"/>
      <point x="492" y="600"/>
      <point x="446" y="600" type="curve" smooth="yes"/>
      <point x="398" y="600"/>
      <point x="356" y="640"/>
      <point x="356" y="686" type="curve" smooth="yes"/>
      <point x="356" y="735"/>
      <point x="398" y="774"/>
      <point x="446" y="774" type="curve" smooth="yes"/>
      <point x="492" y="774"/>
      <point x="534" y="735"/>
    </contour>
    <contour>
      <point x="296" y="686" type="curve" smooth="yes"/>
      <point x="296" y="640"/>
      <point x="254" y="600"/>
      <point x="207" y="600" type="curve" smooth="yes"/>
      <point x="160" y="600"/>
      <point x="118" y="640"/>
      <point x="118" y="686" type="curve" smooth="yes"/>
      <point x="118" y="735"/>
      <point x="160" y="774"/>
      <point x="207" y="774" type="curve" smooth="yes"/>
      <point x="254" y="774"/>
      <point x="296" y="735"/>
    </contour>
  </outline>
</glyph>
<glyph name="copyright" format="1">
  <advance width="836"/>
  <unicode hex="00A9"/>
  <outline>
    <contour>
      <point x="800" y="350" type="curve" smooth="yes"/>
      <point x="800" y="145"/>
      <point x="644" y="-11"/>
      <point x="439" y="-11" type="curve" smooth="yes"/>
      <point x="234" y="-11"/>
      <point x="78" y="145"/>
      <point x="78" y="350" type="curve" smooth="yes"/>
      <point x="78" y="555"/>
      <point x="234" y="711"/>
      <point x="439" y="711" type="curve" smooth="yes"/>
      <point x="644" y="711"/>
      <point x="800" y="555"/>
    </contour>
    <contour>
      <point x="726" y="350" type="curve" smooth="yes"/>
      <point x="726" y="524"/>
      <point x="603" y="640"/>
      <point x="439" y="640" type="curve" smooth="yes"/>
      <point x="275" y="640"/>
      <point x="152" y="524"/>
      <point x="152" y="350" type="curve" smooth="yes"/>
      <point x="152" y="176"/>
      <point x="275" y="60"/>
      <point x="439" y="60" type="curve" smooth="yes"/>
      <point x="603" y="60"/>
      <point x="726" y="176"/>
    </contour>
    <contour>
      <point x="603" y="253" type="line"/>
      <point x="576" y="202"/>
      <point x="533" y="152"/>
      <point x="440" y="152" type="curve" smooth="yes"/>
      <point x="323" y="152"/>
      <point x="261" y="238"/>
      <point x="261" y="354" type="curve" smooth="yes"/>
      <point x="261" y="480"/>
      <point x="335" y="556"/>
      <point x="440" y="556" type="curve" smooth="yes"/>
      <point x="537" y="556"/>
      <point x="575" y="515"/>
      <point x="602" y="441" type="curve"/>
      <point x="503" y="402" type="line"/>
      <point x="489" y="439"/>
      <point x="476" y="462"/>
      <point x="440" y="462" type="curve" smooth="yes"/>
      <point x="394" y="462"/>
      <point x="375" y="416"/>
      <point x="375" y="354" type="curve" smooth="yes"/>
      <point x="375" y="294"/>
      <point x="394" y="247"/>
      <point x="441" y="247" type="curve" smooth="yes"/>
      <point x="475" y="247"/>
      <point x="490" y="265"/>
      <point x="511" y="302" type="curve"/>
    </contour>
  </outline>
</glyph>
<glyph name="ordfeminine" format="1">
  <advance width="496"/>
  <unicode hex="00AA"/>
  <outline>
    <contour>
      <point x="432" y="276" type="line"/>
      <point x="294" y="276" type="line"/>
      <point x="299" y="305" type="line"/>
      <point x="278" y="286"/>
      <point x="239" y="268"/>
      <point x="203" y="268" type="curve" smooth="yes"/>
      <point x="124" y="268"/>
      <point x="78" y="320"/>
      <point x="78" y="397" type="curve" smooth="yes"/>
      <point x="78" y="490"/>
      <point x="132" y="553"/>
      <point x="241" y="553" type="curve" smooth="yes"/>
      <point x="280" y="553"/>
      <point x="318" y="545"/>
      <point x="340" y="535" type="curve"/>
      <point x="343" y="556" type="line" smooth="yes"/>
      <point x="348" y="594"/>
      <point x="330" y="606"/>
      <point x="278" y="606" type="curve" smooth="yes"/>
      <point x="236" y="606"/>
      <point x="200" y="595"/>
      <point x="173" y="584" type="curve"/>
      <point x="152" y="681" type="line"/>
      <point x="185" y="695"/>
      <point x="232" y="711"/>
      <point x="302" y="711" type="curve" smooth="yes"/>
      <point x="442" y="711"/>
      <point x="498" y="651"/>
      <point x="481" y="553" type="curve" smooth="yes"/>
    </contour>
    <contour>
      <point x="314" y="391" type="curve"/>
      <point x="325" y="450" type="line"/>
      <point x="311" y="456"/>
      <point x="294" y="462"/>
      <point x="266" y="462" type="curve" smooth="yes"/>
      <point x="230" y="462"/>
      <point x="214" y="438"/>
      <point x="214" y="410" type="curve" smooth="yes"/>
      <point x="214" y="388"/>
      <point x="228" y="370"/>
      <point x="257" y="370" type="curve" smooth="yes"/>
      <point x="281" y="370"/>
      <point x="301" y="381"/>
    </contour>
  </outline>
</glyph>
<glyph name="guillemotleft" format="1">
  <advance width="694"/>
  <unicode hex="00AB"/>
  <outline>
    <contour>
      <point x="607" y="0" type="line"/>
      <point x="412" y="0" type="line"/>
      <point x="331" y="262" type="line"/>
      <point x="504" y="525" type="line"/>
      <point x="699" y="525" type="line"/>
      <point x="522" y="263" type="line"/>
    </contour>
    <contour>
      <point x="306" y="0" type="line"/>
      <point x="111" y="0" type="line"/>
      <point x="30" y="262" type="line"/>
      <point x="203" y="525" type="line"/>
      <point x="398" y="525" type="line"/>
      <point x="221" y="263" type="line"/>
    </contour>
  </outline>
</glyph>
<glyph name="degree" format="1">
  <advance width="526"/>
  <unicode hex="00B0"/>
  <outline>
    <contour>
      <point x="516" y="494" type="curve" smooth="yes"/>
      <point x="516" y="366"/>
      <point x="421" y="275"/>
      <point x="298" y="275" type="curve" smooth="yes"/>
      <point x="176" y="275"/>
      <point x="80" y="366"/>
      <point x="80" y="494" type="curve" smooth="yes"/>
      <point x="80" y="619"/>
      <point x="176" y="711"/>
      <point x="298" y="711" type="curve" smooth="yes"/>
      <point x="421" y="711"/>
      <point x="516" y="619"/>
    </contour>
    <contour>
      <point x="388" y="494" type="curve" smooth="yes"/>
      <point x="388" y="553"/>
      <point x="351" y="590"/>
      <point x="298" y="590" type="curve" smooth="yes"/>
      <point x="246" y="590"/>
      <point x="208" y="553"/>
      <point x="208" y="494" type="curve" smooth="yes"/>
      <point x="208" y="432"/>
      <point x="246" y="396"/>
      <point x="298" y="396" type="curve" smooth="yes"/>
      <point x="351" y="396"/>
      <point x="388" y="432"/>
    </contour>
  </outline>
</glyph>
<glyph name="acute" format="1">
  <advance width="500"/>
  <unicode hex="00B4"/>
  <outline>
    <contour>
      <point x="496" y="755" type="line"/>
      <point x="310" y="595" type="line"/>
      <point x="182" y="595" type="line"/>
      <point x="283" y="755" type="line"/>
    </contour>
  </outline>
</glyph>
<glyph name="paragraph" format="1">
  <advance width="720"/>
  <unicode hex="00B6"/>
  <outline>
    <contour>
      <point x="562" y="-185" type="line"/>
      <point x="423" y="-185" type="line"/>
      <point x="558" y="583" type="line"/>
      <point x="499" y="583" type="line"/>
      <point x="364" y="-185" type="line"/>
      <point x="225" y="-185" type="line"/>
      <point x="303" y="261" type="line"/>
      <point x="164" y="261"/>
      <point x="71" y="324"/>
      <point x="71" y="444" type="curve" smooth="yes"/>
      <point x="71" y="612"/>
      <point x="200" y="700"/>
      <point x="357" y="700" type="curve" smooth="yes"/>
      <point x="718" y="700" type="line"/>
    </contour>
  </outline>
</glyph>
<glyph name="periodcentered" format="1">
  <advance width="314"/>
  <unicode hex="00B7"/>
  <outline>
    <contour>
      <point x="292" y="367" type="curve" smooth="yes"/>
      <point x="292" y="301"/>
      <point x="243" y="252"/>
      <point x="177" y="252" type="curve" smooth="yes"/>
      <point x="111" y="252"/>
      <point x="62" y="301"/>
      <point x="62" y="367" type="curve" smooth="yes"/>
      <point x="62" y="433"/>
      <point x="111" y="480"/>
      <point x="177" y="480" type="curve" smooth="yes"/>
      <point x="243" y="480"/>
      <point x="292" y="433"/>
    </contour>
  </outline>
</glyph>
<glyph name="cedilla" format="1">
  <advance width="500"/>
  <unicode hex="00B8"/>
  <outline>
    <contour>
      <point x="306" y="-102" type="curve" smooth="yes"/>
      <point x="306" y="-156"/>
      <point x="267" y="-193"/>
      <point x="198" y="-193" type="curve" smooth="yes"/>
      <point x="135" y="-193"/>
      <point x="80" y="-172"/>
      <point x="39" y="-148" type="curve"/>
      <point x="65" y="-104" type="line"/>
      <point x="99" y="-121"/>
      <point x="138" y="-135"/>
      <point x="170" y="-135" type="curve" smooth="yes"/>
      <point x="202" y="-135"/>
      <point x="215" y="-124"/>
      <point x="215" y="-106" type="curve" smooth="yes"/>
      <point x="215" y="-93"/>
      <point x="210" y="-85"/>
      <point x="194" y="-85" type="curve" smooth="yes"/>
      <point x="179" y="-85"/>
      <point x="169" y="-91"/>
      <point x="155" y="-99" type="curve"/>
      <point x="122" y="-73" type="line"/>
      <point x="155" y="0" type="line"/>
      <point x="216" y="0" type="line"/>
      <point x="196" y="-42" type="line"/>
      <point x="207" y="-37"/>
      <point x="220" y="-33"/>
      <point x="236" y="-33" type="curve" smooth="yes"/>
      <point x="279" y="-33"/>
      <point x="306" y="-59"/>
    </contour>
  </outline>
</glyph>
<glyph name="ordmasculine" format="1">
  <advance width="498"/>
  <unicode hex="00BA"/>
  <outline>
    <contour>
      <point x="312" y="711" type="curve" smooth="yes"/>
      <point x="415" y="711"/>
      <point x="494" y="652"/>
      <point x="494" y="533" type="curve" smooth="yes"/>
      <point x="494" y="397"/>
      <point x="419" y="268"/>
      <point x="266" y="268" type="curve" smooth="yes"/>
      <point x="163" y="268"/>
      <point x="84" y="327"/>
      <point x="84" y="446" type="curve" smooth="yes"/>
      <point x="84" y="582"/>
      <point x="159" y="711"/>
    </contour>
    <contour>
      <point x="275" y="386" type="curve" smooth="yes"/>
      <point x="330" y="386"/>
      <point x="349" y="474"/>
      <point x="349" y="530" type="curve" smooth="yes"/>
      <point x="349" y="570"/>
      <point x="335" y="593"/>
      <point x="303" y="593" type="curve" smooth="yes"/>
      <point x="248" y="593"/>
      <point x="229" y="505"/>
      <point x="229" y="449" type="curve" smooth="yes"/>
      <point x="229" y="409"/>
      <point x="243" y="386"/>
    </contour>
  </outline>
</glyph>
<glyph name="guillemotright" format="1">
  <advance width="694"/>
  <unicode hex="00BB"/>
  <outline>
    <contour>
      <point x="664" y="263" type="line"/>
      <point x="491" y="0" type="line"/>
      <point x="296" y="0" type="line"/>
      <point x="473" y="262" type="line"/>
      <point x="388" y="525" type="line"/>
      <point x="583" y="525" type="line"/>
    </contour>
    <contour>
      <point x="363" y="263" type="line"/>
      <point x="190" y="0" type="line"/>
      <point x="-5" y="0" type="line"/>
      <point x="172" y="262" type="line"/>
      <point x="87" y="525" type="line"/>
      <point x="282" y="525" type="line"/>
    </contour>
  </outline>
</glyph>
<glyph name="questiondown" format="1">
  <advance width="598"/>
  <unicode hex="00BF"/>
  <outline>
    <contour>
      <point x="281" y="607" type="curve" smooth="yes"/>
      <point x="281" y="666"/>
      <point x="325" y="711"/>
      <point x="385" y="711" type="curve" smooth="yes"/>
      <point x="445" y="711"/>
      <point x="489" y="666"/>
      <point x="489" y="607" type="curve" smooth="yes"/>
      <point x="489" y="548"/>
      <point x="445" y="505"/>
      <point x="385" y="505" type="curve" smooth="yes"/>
      <point x="325" y="505"/>
      <point x="281" y="548"/>
    </contour>
    <contour>
      <point x="172" y="354" type="curve" smooth="yes"/>
      <point x="244" y="380"/>
      <point x="256" y="402"/>
      <point x="264" y="450" type="curve"/>
      <point x="443" y="450" type="line"/>
      <point x="432" y="361"/>
      <point x="399" y="304"/>
      <point x="282" y="263" type="curve" smooth="yes"/>
      <point x="236" y="247"/>
      <point x="211" y="230"/>
      <point x="211" y="199" type="curve" smooth="yes"/>
      <point x="211" y="169"/>
      <point x="242" y="152"/>
      <point x="296" y="152" type="curve" smooth="yes"/>
      <point x="363" y="152"/>
      <point x="433" y="177"/>
      <point x="481" y="205" type="curve"/>
      <point x="545" y="57" type="line"/>
      <point x="458" y="8"/>
      <point x="356" y="-11"/>
      <point x="280" y="-11" type="curve" smooth="yes"/>
      <point x="125" y="-11"/>
      <point x="19" y="49"/>
      <point x="19" y="171" type="curve" smooth="yes"/>
      <point x="19" y="263"/>
      <point x="78" y="320"/>
    </contour>
  </outline>
</glyph>
<glyph name="Aring" format="1">
  <advance width="762"/>
  <unicode hex="00C5"/>
  <outline>
    <contour>
      <point x="566" y="644" type="curve"/>
      <point x="682" y="0" type="line"/>
      <point x="472" y="0" type="line"/>
      <point x="458" y="123" type="line"/>
      <point x="250" y="123" type="line"/>
      <point x="191" y="0" type="line"/>
      <point x="-17" y="0" type="line"/>
      <point x="343" y="668" type="line"/>
      <point x="330" y="689"/>
      <point x="322" y="714"/>
      <point x="322" y="741" type="curve" smooth="yes"/>
      <point x="322" y="820"/>
      <point x="385" y="880"/>
      <point x="464" y="880" type="curve" smooth="yes"/>
      <point x="543" y="880"/>
      <point x="606" y="820"/>
      <point x="606" y="741" type="curve" smooth="yes"/>
      <point x="606" y="702"/>
      <point x="591" y="668"/>
    </contour>
    <contour>
      <point x="519" y="741" type="curve" smooth="yes"/>
      <point x="519" y="777"/>
      <point x="498" y="801"/>
      <point x="464" y="801" type="curve" smooth="yes"/>
      <point x="430" y="801"/>
      <point x="409" y="777"/>
      <point x="409" y="741" type="curve" smooth="yes"/>
      <point x="409" y="705"/>
      <point x="430" y="682"/>
      <point x="464" y="682" type="curve" smooth="yes"/>
      <point x="498" y="682"/>
      <point x="519" y="705"/>
    </contour>
    <contour>
      <point x="441" y="277" type="line"/>
      <point x="436" y="323" type="line" smooth="yes"/>
      <point x="426" y="413"/>
      <point x="423" y="450"/>
      <point x="422" y="498" type="curve"/>
      <point x="409" y="457"/>
      <point x="388" y="411"/>
      <point x="346" y="323" type="curve" smooth="yes"/>
      <point x="324" y="277" type="line"/>
    </contour>
  </outline>
</glyph>
<glyph name="AE" format="1">
  <advance width="1067"/>
  <unicode hex="00C6"/>
  <outline>
    <contour>
      <point x="246" y="76" type="line"/>
      <point x="188" y="0" type="line"/>
      <point x="-31" y="0" type="line"/>
      <point x="535" y="700" type="line"/>
      <point x="1085" y="700" type="line"/>
      <point x="1056" y="537" type="line"/>
      <point x="734" y="537" type="line"/>
      <point x="718" y="444" type="line"/>
      <point x="903" y="444" type="line"/>
      <point x="874" y="283" type="line"/>
      <point x="689" y="283" type="line"/>
      <point x="668" y="163" type="line"/>
      <point x="997" y="163" type="line"/>
      <point x="969" y="0" type="line"/>
      <point x="465" y="0" type="line"/>
      <point x="478" y="76" type="line"/>
    </contour>
    <contour>
      <point x="356" y="222" type="line"/>
      <point x="504" y="222" type="line"/>
      <point x="524" y="337" type="line" smooth="yes"/>
      <point x="531" y="378"/>
      <point x="548" y="464"/>
      <point x="553" y="492" type="curve"/>
      <point x="525" y="447"/>
      <point x="480" y="385"/>
      <point x="443" y="336" type="curve" smooth="yes"/>
    </contour>
  </outline>
</glyph>
<glyph name="Ccedilla" format="1">
  <advance width="682"/>
  <unicode hex="00C7"/>
  <outline>
    <contour>
      <point x="270" y="-5" type="line"/>
      <point x="132" y="21"/>
      <point x="50" y="121"/>
      <point x="50" y="282" type="curve" smooth="yes"/>
      <point x="50" y="507"/>
      <point x="184" y="711"/>
      <point x="410" y="711" type="curve" smooth="yes"/>
      <point x="582" y="711"/>
      <point x="657" y="637"/>
      <point x="685" y="505" type="curve"/>
      <point x="500" y="436" type="line"/>
      <point x="484" y="497"/>
      <point x="461" y="542"/>
      <point x="396" y="542" type="curve" smooth="yes"/>
      <point x="298" y="542"/>
      <point x="255" y="403"/>
      <point x="255" y="292" type="curve" smooth="yes"/>
      <point x="255" y="202"/>
      <point x="289" y="158"/>
      <point x="354" y="158" type="curve" smooth="yes"/>
      <point x="424" y="158"/>
      <point x="459" y="216"/>
      <point x="485" y="257" type="curve"/>
      <point x="638" y="170" type="line"/>
      <point x="593" y="98"/>
      <point x="520" y="-11"/>
      <point x="342" y="-11" type="curve" smooth="yes"/>
      <point x="337" y="-11"/>
      <point x="333" y="-11"/>
      <point x="328" y="-11" type="curve"/>
      <point x="313" y="-42" type="line"/>
      <point x="324" y="-37"/>
      <point x="337" y="-33"/>
      <point x="353" y="-33" type="curve" smooth="yes"/>
      <point x="396" y="-33"/>
      <point x="423" y="-59"/>
      <point x="423" y="-102" type="curve" smooth="yes"/>
      <point x="423" y="-156"/>
      <point x="384" y="-193"/>
      <point x="315" y="-193" type="curve" smooth="yes"/>
      <point x="252" y="-193"/>
      <point x="197" y="-172"/>
      <point x="156" y="-148" type="curve"/>
      <point x="182" y="-104" type="line"/>
      <point x="216" y="-121"/>
      <point x="255" y="-135"/>
      <point x="287" y="-135" type="curve" smooth="yes"/>
      <point x="319" y="-135"/>
      <point x="332" y="-124"/>
      <point x="332" y="-106" type="curve" smooth="yes"/>
      <point x="332" y="-93"/>
      <point x="327" y="-85"/>
      <point x="311" y="-85" type="curve" smooth="yes"/>
      <point x="296" y="-85"/>
      <point x="286" y="-91"/>
      <point x="272" y="-99" type="curve"/>
      <point x="239" y="-73" type="line"/>
    </contour>
  </outline>
</glyph>
<glyph name="Eth" format="1">
  <advance width="738"/>
  <unicode hex="00D0"/>
  <outline>
    <contour>
      <point x="95" y="285" type="line"/>
      <point x="34" y="285" type="line"/>
      <point x="60" y="435" type="line"/>
      <point x="121" y="435" type="line"/>
      <point x="168" y="700" type="line"/>
      <point x="367" y="700" type="line" smooth="yes"/>
      <point x="596" y="700"/>
      <point x="717" y="613"/>
      <point x="717" y="425" type="curve" smooth="yes"/>
      <point x="717" y="175"/>
      <point x="597" y="0"/>
      <point x="320" y="0" type="curve" smooth="yes"/>
      <point x="45" y="0" type="line"/>
    </contour>
    <contour>
      <point x="307" y="435" type="line"/>
      <point x="395" y="435" type="line"/>
      <point x="369" y="285" type="line"/>
      <point x="281" y="285" type="line"/>
      <point x="260" y="166" type="line"/>
      <point x="335" y="166" type="line" smooth="yes"/>
      <point x="452" y="166"/>
      <point x="514" y="251"/>
      <point x="514" y="407" type="curve" smooth="yes"/>
      <point x="514" y="490"/>
      <point x="474" y="534"/>
      <point x="357" y="534" type="curve" smooth="yes"/>
      <point x="324" y="534" type="line"/>
    </contour>
  </outline>
</glyph>
<glyph name="Oslash" format="1">
  <advance width="728"/>
  <unicode hex="00D8"/>
  <outline>
    <contour>
      <point x="537" y="692" type="curve"/>
      <point x="582" y="750" type="line"/>
      <point x="790" y="750" type="line"/>
      <point x="667" y="589" type="line"/>
      <point x="694" y="543"/>
      <point x="708" y="485"/>
      <point x="708" y="415" type="curve" smooth="yes"/>
      <point x="708" y="182"/>
      <point x="558" y="-11"/>
      <point x="345" y="-11" type="curve" smooth="yes"/>
      <point x="299" y="-11"/>
      <point x="257" y="-5"/>
      <point x="221" y="7" type="curve"/>
      <point x="177" y="-50" type="line"/>
      <point x="-31" y="-50" type="line"/>
      <point x="91" y="110" type="line"/>
      <point x="63" y="155"/>
      <point x="49" y="214"/>
      <point x="49" y="285" type="curve" smooth="yes"/>
      <point x="49" y="518"/>
      <point x="199" y="711"/>
      <point x="412" y="711" type="curve" smooth="yes"/>
      <point x="459" y="711"/>
      <point x="501" y="705"/>
    </contour>
    <contour>
      <point x="400" y="542" type="curve" smooth="yes"/>
      <point x="305" y="542"/>
      <point x="252" y="417"/>
      <point x="252" y="298" type="curve" smooth="yes"/>
      <point x="252" y="207"/>
      <point x="287" y="158"/>
      <point x="357" y="158" type="curve" smooth="yes"/>
      <point x="452" y="158"/>
      <point x="505" y="283"/>
      <point x="505" y="402" type="curve" smooth="yes"/>
      <point x="505" y="493"/>
      <point x="470" y="542"/>
    </contour>
  </outline>
</glyph>
<glyph name="Thorn" format="1">
  <advance width="675"/>
  <unicode hex="00DE"/>
  <outline>
    <contour>
      <point x="663" y="391" type="curve" smooth="yes"/>
      <point x="663" y="210"/>
      <point x="523" y="123"/>
      <point x="380" y="123" type="curve" smooth="yes"/>
      <point x="238" y="123" type="line"/>
      <point x="216" y="0" type="line"/>
      <point x="25" y="0" type="line"/>
      <point x="148" y="700" type="line"/>
      <point x="339" y="700" type="line"/>
      <point x="321" y="596" type="line"/>
      <point x="397" y="596" type="line" smooth="yes"/>
      <point x="570" y="596"/>
      <point x="663" y="527"/>
    </contour>
    <contour>
      <point x="467" y="370" type="curve" smooth="yes"/>
      <point x="467" y="422"/>
      <point x="435" y="438"/>
      <point x="375" y="438" type="curve" smooth="yes"/>
      <point x="294" y="438" type="line"/>
      <point x="266" y="281" type="line"/>
      <point x="364" y="281" type="line" smooth="yes"/>
      <point x="430" y="281"/>
      <point x="467" y="315"/>
    </contour>
  </outline>
</glyph>
<glyph name="germandbls" format="1">
  <advance width="597"/>
  <unicode hex="00DF"/>
  <outline>
    <contour>
      <point x="560" y="239" type="curve" smooth="yes"/>
      <point x="560" y="80"/>
      <point x="451" y="0"/>
      <point x="298" y="0" type="curve" smooth="yes"/>
      <point x="243" y="0" type="line"/>
      <point x="268" y="141" type="line"/>
      <point x="287" y="141" type="line" smooth="yes"/>
      <point x="339" y="141"/>
      <point x="382" y="171"/>
      <point x="382" y="251" type="curve" smooth="yes"/>
      <point x="382" y="295"/>
      <point x="355" y="316"/>
      <point x="300" y="321" type="curve"/>
      <point x="324" y="457" type="line"/>
      <point x="334" y="457" type="line" smooth="yes"/>
      <point x="362" y="457"/>
      <point x="384" y="473"/>
      <point x="384" y="529" type="curve" smooth="yes"/>
      <point x="384" y="560"/>
      <point x="365" y="580"/>
      <point x="334" y="580" type="curve" smooth="yes"/>
      <point x="302" y="580"/>
      <point x="286" y="553"/>
      <point x="276" y="496" type="curve" smooth="yes"/>
      <point x="168" y="-121" type="line"/>
      <point x="-25" y="-193" type="line"/>
      <point x="96" y="491" type="line" smooth="yes"/>
      <point x="125" y="653"/>
      <point x="207" y="726"/>
      <point x="346" y="726" type="curve" smooth="yes"/>
      <point x="481" y="726"/>
      <point x="560" y="664"/>
      <point x="560" y="565" type="curve" smooth="yes"/>
      <point x="560" y="463"/>
      <point x="492" y="409"/>
      <point x="452" y="392" type="curve"/>
      <point x="513" y="368"/>
      <point x="560" y="328"/>
    </contour>
  </outline>
</glyph>
<glyph name="ae" format="1">
  <advance width="843"/>
  <unicode hex="00E6"/>
  <outline>
    <contour>
      <point x="395" y="63" type="curve"/>
      <point x="324" y="14"/>
      <point x="259" y="-11"/>
      <point x="168" y="-11" type="curve" smooth="yes"/>
      <point x="74" y="-11"/>
      <point x="14" y="41"/>
      <point x="14" y="137" type="curve" smooth="yes"/>
      <point x="14" y="267"/>
      <point x="95" y="341"/>
      <point x="213" y="341" type="curve" smooth="yes"/>
      <point x="261" y="341"/>
      <point x="311" y="330"/>
      <point x="338" y="317" type="curve"/>
      <point x="343" y="343" type="line" smooth="yes"/>
      <point x="352" y="390"/>
      <point x="323" y="407"/>
      <point x="264" y="407" type="curve" smooth="yes"/>
      <point x="209" y="407"/>
      <point x="172" y="398"/>
      <point x="131" y="384" type="curve"/>
      <point x="105" y="503" type="line"/>
      <point x="143" y="519"/>
      <point x="200" y="536"/>
      <point x="295" y="536" type="curve" smooth="yes"/>
      <point x="376" y="536"/>
      <point x="433" y="520"/>
      <point x="463" y="479" type="curve"/>
      <point x="503" y="520"/>
      <point x="551" y="536"/>
      <point x="600" y="536" type="curve" smooth="yes"/>
      <point x="741" y="536"/>
      <point x="808" y="456"/>
      <point x="808" y="324" type="curve" smooth="yes"/>
      <point x="808" y="281"/>
      <point x="801" y="235"/>
      <point x="793" y="211" type="curve"/>
      <point x="490" y="211" type="line"/>
      <point x="486" y="153"/>
      <point x="526" y="127"/>
      <point x="575" y="127" type="curve" smooth="yes"/>
      <point x="621" y="127"/>
      <point x="652" y="134"/>
      <point x="702" y="158" type="curve"/>
      <point x="751" y="39" type="line"/>
      <point x="687" y="6"/>
      <point x="624" y="-11"/>
      <point x="554" y="-11" type="curve" smooth="yes"/>
      <point x="472" y="-11"/>
      <point x="422" y="17"/>
    </contour>
    <contour>
      <point x="655" y="323" type="line"/>
      <point x="656" y="376"/>
      <point x="640" y="403"/>
      <point x="587" y="403" type="curve" smooth="yes"/>
      <point x="546" y="403"/>
      <point x="523" y="375"/>
      <point x="508" y="323" type="curve"/>
    </contour>
    <contour>
      <point x="307" y="140" type="curve"/>
      <point x="319" y="212" type="line"/>
      <point x="302" y="220"/>
      <point x="278" y="229"/>
      <point x="244" y="229" type="curve" smooth="yes"/>
      <point x="205" y="229"/>
      <point x="181" y="200"/>
      <point x="181" y="160" type="curve" smooth="yes"/>
      <point x="181" y="132"/>
      <point x="198" y="116"/>
      <point x="230" y="116" type="curve" smooth="yes"/>
      <point x="260" y="116"/>
      <point x="287" y="127"/>
    </contour>
  </outline>
</glyph>
<glyph name="ccedilla" format="1">
  <advance width="516"/>
  <unicode hex="00E7"/>
  <outline>
    <contour>
      <point x="183" y="-4" type="line"/>
      <point x="93" y="17"/>
      <point x="29" y="85"/>
      <point x="29" y="211" type="curve" smooth="yes"/>
      <point x="29" y="387"/>
      <point x="128" y="536"/>
      <point x="303" y="536" type="curve" smooth="yes"/>
      <point x="402" y="536"/>
      <point x="470" y="501"/>
      <point x="510" y="403" type="curve"/>
      <point x="369" y="318" type="line"/>
      <point x="353" y="367"/>
      <point x="337" y="390"/>
      <point x="299" y="390" type="curve" smooth="yes"/>
      <point x="240" y="390"/>
      <point x="209" y="301"/>
      <point x="209" y="218" type="curve" smooth="yes"/>
      <point x="209" y="167"/>
      <point x="226" y="135"/>
      <point x="268" y="135" type="curve" smooth="yes"/>
      <point x="303" y="135"/>
      <point x="332" y="161"/>
      <point x="363" y="199" type="curve"/>
      <point x="465" y="100" type="line"/>
      <point x="418" y="40"/>
      <point x="351" y="-11"/>
      <point x="250" y="-11" type="curve" smooth="yes"/>
      <point x="247" y="-11"/>
      <point x="244" y="-11"/>
      <point x="241" y="-11" type="curve"/>
      <point x="226" y="-42" type="line"/>
      <point x="237" y="-37"/>
      <point x="250" y="-33"/>
      <point x="266" y="-33" type="curve" smooth="yes"/>
      <point x="309" y="-33"/>
      <point x="336" y="-59"/>
      <point x="336" y="-102" type="curve" smooth="yes"/>
      <point x="336" y="-156"/>
      <point x="297" y="-193"/>
      <point x="228" y="-193" type="curve" smooth="yes"/>
      <point x="165" y="-193"/>
      <point x="110" y="-172"/>
      <point x="69" y="-148" type="curve"/>
      <point x="95" y="-104" type="line"/>
      <point x="129" y="-121"/>
      <point x="168" y="-135"/>
      <point x="200" y="-135" type="curve" smooth="yes"/>
      <point x="232" y="-135"/>
      <point x="245" y="-124"/>
      <point x="245" y="-106" type="curve" smooth="yes"/>
      <point x="245" y="-93"/>
      <point x="240" y="-85"/>
      <point x="224" y="-85" type="curve" smooth="yes"/>
      <point x="209" y="-85"/>
      <point x="199" y="-91"/>
      <point x="185" y="-99" type="curve"/>
      <point x="152" y="-73" type="line"/>
    </contour>
  </outline>
</glyph>
<glyph name="eth" format="1">
  <advance width="565"/>
  <unicode hex="00F0"/>
  <outline>
    <contour>
      <point x="401" y="659" type="curve"/>
      <point x="460" y="711" type="line"/>
      <point x="521" y="652" type="line"/>
      <point x="467" y="605" type="line"/>
      <point x="514" y="552"/>
      <point x="542" y="478"/>
      <point x="542" y="375" type="curve" smooth="yes"/>
      <point x="542" y="135"/>
      <point x="432" y="-11"/>
      <point x="255" y="-11" type="curve" smooth="yes"/>
      <point x="135" y="-11"/>
      <point x="25" y="61"/>
      <point x="25" y="203" type="curve" smooth="yes"/>
      <point x="25" y="360"/>
      <point x="142" y="461"/>
      <point x="267" y="461" type="curve" smooth="yes"/>
      <point x="332" y="461"/>
      <point x="378" y="448"/>
      <point x="405" y="418" type="curve"/>
      <point x="400" y="457"/>
      <point x="384" y="488"/>
      <point x="362" y="512" type="curve"/>
      <point x="321" y="477" type="line"/>
      <point x="260" y="536" type="line"/>
      <point x="291" y="563" type="line"/>
      <point x="264" y="576"/>
      <point x="234" y="585"/>
      <point x="205" y="590" type="curve"/>
      <point x="227" y="711" type="line"/>
      <point x="291" y="705"/>
      <point x="351" y="689"/>
    </contour>
    <contour>
      <point x="348" y="257" type="curve" smooth="yes"/>
      <point x="348" y="297"/>
      <point x="327" y="320"/>
      <point x="287" y="320" type="curve" smooth="yes"/>
      <point x="232" y="320"/>
      <point x="204" y="265"/>
      <point x="204" y="204" type="curve" smooth="yes"/>
      <point x="204" y="160"/>
      <point x="227" y="137"/>
      <point x="265" y="137" type="curve" smooth="yes"/>
      <point x="321" y="137"/>
      <point x="348" y="196"/>
    </contour>
  </outline>
</glyph>
<glyph name="oslash" format="1">
  <advance width="565"/>
  <unicode hex="00F8"/>
  <outline>
    <contour>
      <point x="401" y="521" type="curve"/>
      <point x="443" y="575" type="line"/>
      <point x="606" y="575" type="line"/>
      <point x="503" y="440" type="line"/>
      <point x="523" y="406"/>
      <point x="535" y="363"/>
      <point x="535" y="315" type="curve" smooth="yes"/>
      <point x="535" y="132"/>
      <point x="425" y="-11"/>
      <point x="255" y="-11" type="curve" smooth="yes"/>
      <point x="222" y="-11"/>
      <point x="192" y="-6"/>
      <point x="166" y="3" type="curve"/>
      <point x="125" y="-50" type="line"/>
      <point x="-38" y="-50" type="line"/>
      <point x="63" y="82" type="line"/>
      <point x="41" y="117"/>
      <point x="29" y="160"/>
      <point x="29" y="210" type="curve" smooth="yes"/>
      <point x="29" y="393"/>
      <point x="139" y="536"/>
      <point x="309" y="536" type="curve" smooth="yes"/>
      <point x="343" y="536"/>
      <point x="374" y="531"/>
    </contour>
    <contour>
      <point x="262" y="135" type="curve" smooth="yes"/>
      <point x="329" y="135"/>
      <point x="356" y="229"/>
      <point x="356" y="308" type="curve" smooth="yes"/>
      <point x="356" y="363"/>
      <point x="338" y="390"/>
      <point x="302" y="390" type="curve" smooth="yes"/>
      <point x="235" y="390"/>
      <point x="208" y="296"/>
      <point x="208" y="217" type="curve" smooth="yes"/>
      <point x="208" y="162"/>
      <point x="226" y="135"/>
    </contour>
  </outline>
</glyph>
<glyph name="dotlessi" format="1">
  <advance width="302"/>
  <unicode hex="0131"/>
  <outline>
    <contour>
      <point x="194" y="0" type="line"/>
      <point x="14" y="0" type="line"/>
      <point x="107" y="525" type="line"/>
      <point x="287" y="525" type="line"/>
    </contour>
  </outline>
</glyph>
<glyph name="Lslash" format="1">
  <advance width="631"/>
  <unicode hex="0141"/>
  <outline>
    <contour>
      <point x="547" y="0" type="line"/>
      <point x="45" y="0" type="line"/>
      <point x="85" y="230" type="line"/>
      <point x="23" y="193" type="line"/>
      <point x="53" y="361" type="line"/>
      <point x="115" y="398" type="line"/>
      <point x="168" y="700" type="line"/>
      <point x="359" y="700" type="line"/>
      <point x="324" y="498" type="line"/>
      <point x="433" y="560" type="line"/>
      <point x="403" y="392" type="line"/>
      <point x="294" y="330" type="line"/>
      <point x="266" y="169" type="line"/>
      <point x="577" y="169" type="line"/>
    </contour>
  </outline>
</glyph>
<glyph name="lslash" format="1">
  <advance width="342"/>
  <unicode hex="0142"/>
  <outline>
    <contour>
      <point x="335" y="346" type="line"/>
      <point x="267" y="311" type="line"/>
      <point x="212" y="0" type="line"/>
      <point x="38" y="0" type="line"/>
      <point x="79" y="234" type="line"/>
      <point x="11" y="199" type="line"/>
      <point x="40" y="367" type="line"/>
      <point x="109" y="402" type="line"/>
      <point x="154" y="657" type="line"/>
      <point x="340" y="729" type="line"/>
      <point x="296" y="479" type="line"/>
      <point x="364" y="514" type="line"/>
    </contour>
  </outline>
</glyph>
<glyph name="OE" format="1">
  <advance width="1057"/>
  <unicode hex="0152"/>
  <outline>
    <contour>
      <point x="595" y="639" type="curve"/>
      <point x="606" y="700" type="line"/>
      <point x="1074" y="700" type="line"/>
      <point x="1045" y="537" type="line"/>
      <point x="716" y="537" type="line"/>
      <point x="700" y="444" type="line"/>
      <point x="892" y="444" type="line"/>
      <point x="863" y="283" type="line"/>
      <point x="671" y="283" type="line"/>
      <point x="650" y="163" type="line"/>
      <point x="986" y="163" type="line"/>
      <point x="958" y="0" type="line"/>
      <point x="483" y="0" type="line"/>
      <point x="491" y="45" type="line"/>
      <point x="443" y="6"/>
      <point x="389" y="-11"/>
      <point x="335" y="-11" type="curve" smooth="yes"/>
      <point x="187" y="-11"/>
      <point x="49" y="78"/>
      <point x="49" y="285" type="curve" smooth="yes"/>
      <point x="49" y="529"/>
      <point x="199" y="711"/>
      <point x="411" y="711" type="curve" smooth="yes"/>
      <point x="499" y="711"/>
      <point x="558" y="685"/>
    </contour>
    <contour>
      <point x="400" y="542" type="curve" smooth="yes"/>
      <point x="305" y="542"/>
      <point x="252" y="417"/>
      <point x="252" y="298" type="curve" smooth="yes"/>
      <point x="252" y="207"/>
      <point x="287" y="158"/>
      <point x="357" y="158" type="curve" smooth="yes"/>
      <point x="452" y="158"/>
      <point x="505" y="283"/>
      <point x="505" y="402" type="curve" smooth="yes"/>
      <point x="505" y="493"/>
      <point x="470" y="542"/>
    </contour>
  </outline>
</glyph>
<glyph name="oe" format="1">
  <advance width="864"/>
  <unicode hex="0153"/>
  <outline>
    <contour>
      <point x="413" y="57" type="curve"/>
      <point x="386" y="26"/>
      <point x="334" y="-11"/>
      <point x="255" y="-11" type="curve" smooth="yes"/>
      <point x="125" y="-11"/>
      <point x="30" y="69"/>
      <point x="30" y="216" type="curve" smooth="yes"/>
      <point x="30" y="380"/>
      <point x="129" y="536"/>
      <point x="309" y="536" type="curve" smooth="yes"/>
      <point x="383" y="536"/>
      <point x="437" y="505"/>
      <point x="464" y="467" type="curve"/>
      <point x="507" y="511"/>
      <point x="560" y="536"/>
      <point x="621" y="536" type="curve" smooth="yes"/>
      <point x="760" y="536"/>
      <point x="829" y="458"/>
      <point x="829" y="326" type="curve" smooth="yes"/>
      <point x="829" y="287"/>
      <point x="822" y="239"/>
      <point x="814" y="211" type="curve"/>
      <point x="511" y="211" type="line"/>
      <point x="507" y="153"/>
      <point x="547" y="127"/>
      <point x="596" y="127" type="curve" smooth="yes"/>
      <point x="642" y="127"/>
      <point x="673" y="134"/>
      <point x="723" y="158" type="curve"/>
      <point x="772" y="39" type="line"/>
      <point x="708" y="6"/>
      <point x="645" y="-11"/>
      <point x="575" y="-11" type="curve" smooth="yes"/>
      <point x="499" y="-11"/>
      <point x="446" y="15"/>
    </contour>
    <contour>
      <point x="676" y="323" type="line"/>
      <point x="677" y="376"/>
      <point x="661" y="403"/>
      <point x="608" y="403" type="curve" smooth="yes"/>
      <point x="567" y="403"/>
      <point x="544" y="375"/>
      <point x="529" y="323" type="curve"/>
    </contour>
    <contour>
      <point x="262" y="135" type="curve" smooth="yes"/>
      <point x="329" y="135"/>
      <point x="356" y="229"/>
      <point x="356" y="308" type="curve" smooth="yes"/>
      <point x="356" y="363"/>
      <point x="338" y="390"/>
      <point x="302" y="390" type="curve" smooth="yes"/>
      <point x="235" y="390"/>
      <point x="208" y="296"/>
      <point x="208" y="217" type="curve" smooth="yes"/>
      <point x="208" y="162"/>
      <point x="226" y="135"/>
    </contour>
  </outline>
</glyph>
<glyph name="florin" format="1">
  <advance width="429"/>
  <unicode hex="0192"/>
  <outline>
    <contour>
      <point x="435" y="567" type="line"/>
      <point x="422" y="574"/>
      <point x="397" y="584"/>
      <point x="372" y="584" type="curve" smooth="yes"/>
      <point x="352" y="584"/>
      <point x="341" y="576"/>
      <point x="337" y="551" type="curve" smooth="yes"/>
      <point x="333" y="525" type="line"/>
      <point x="415" y="525" type="line"/>
      <point x="390" y="384" type="line"/>
      <point x="311" y="384" type="line"/>
      <point x="222" y="-122" type="line"/>
      <point x="32" y="-193" type="line"/>
      <point x="134" y="384" type="line"/>
      <point x="73" y="384" type="line"/>
      <point x="98" y="525" type="line"/>
      <point x="159" y="525" type="line"/>
      <point x="165" y="561" type="line" smooth="yes"/>
      <point x="184" y="674"/>
      <point x="226" y="711"/>
      <point x="321" y="711" type="curve" smooth="yes"/>
      <point x="384" y="711"/>
      <point x="434" y="695"/>
      <point x="456" y="683" type="curve"/>
    </contour>
  </outline>
</glyph>
<glyph name="circumflex" format="1">
  <advance width="500"/>
  <unicode hex="02C6"/>
  <outline>
    <contour>
      <point x="511" y="595" type="line"/>
      <point x="394" y="595" type="line"/>
      <point x="322" y="659" type="line"/>
      <point x="228" y="595" type="line"/>
      <point x="107" y="595" type="line"/>
      <point x="266" y="755" type="line"/>
      <point x="408" y="755" type="line"/>
    </contour>
  </outline>
</glyph>
<glyph name="caron" format="1">
  <advance width="500"/>
  <unicode hex="02C7"/>
  <outline>
    <contour>
      <point x="539" y="755" type="line"/>
      <point x="380" y="595" type="line"/>
      <point x="238" y="595" type="line"/>
      <point x="135" y="755" type="line"/>
      <point x="251" y="755" type="line"/>
      <point x="323" y="691" type="line"/>
      <point x="417" y="755" type="line"/>
    </contour>
  </outline>
</glyph>
<glyph name="breve" format="1">
  <advance width="500"/>
  <unicode hex="02D8"/>
  <outline>
    <contour>
      <point x="530" y="755" type="line"/>
      <point x="498" y="660"/>
      <point x="442" y="595"/>
      <point x="325" y="595" type="curve" smooth="yes"/>
      <point x="211" y="595"/>
      <point x="147" y="656"/>
      <point x="144" y="755" type="curve"/>
      <point x="249" y="755" type="line"/>
      <point x="254" y="721"/>
      <point x="276" y="694"/>
      <point x="333" y="694" type="curve" smooth="yes"/>
      <point x="383" y="694"/>
      <point x="408" y="721"/>
      <point x="425" y="755" type="curve"/>
    </contour>
  </outline>
</glyph>
<glyph name="dotaccent" format="1">
  <advance width="500"/>
  <unicode hex="02D9"/>
  <outline>
    <contour>
      <point x="420" y="686" type="curve" smooth="yes"/>
      <point x="420" y="638"/>
      <point x="376" y="595"/>
      <point x="326" y="595" type="curve" smooth="yes"/>
      <point x="277" y="595"/>
      <point x="232" y="638"/>
      <point x="232" y="686" type="curve" smooth="yes"/>
      <point x="232" y="738"/>
      <point x="277" y="779"/>
      <point x="326" y="779" type="curve" smooth="yes"/>
      <point x="376" y="779"/>
      <point x="420" y="738"/>
    </contour>
  </outline>
</glyph>
<glyph name="ring" format="1">
  <advance width="500"/>
  <unicode hex="02DA"/>
  <outline>
    <contour>
      <point x="469" y="733" type="curve" smooth="yes"/>
      <point x="469" y="654"/>
      <point x="406" y="595"/>
      <point x="327" y="595" type="curve" smooth="yes"/>
      <point x="248" y="595"/>
      <point x="185" y="654"/>
      <point x="185" y="733" type="curve" smooth="yes"/>
      <point x="185" y="812"/>
      <point x="248" y="872"/>
      <point x="327" y="872" type="curve" smooth="yes"/>
      <point x="406" y="872"/>
      <point x="469" y="812"/>
    </contour>
    <contour>
      <point x="382" y="733" type="curve" smooth="yes"/>
      <point x="382" y="769"/>
      <point x="361" y="793"/>
      <point x="327" y="793" type="curve" smooth="yes"/>
      <point x="293" y="793"/>
      <point x="272" y="769"/>
      <point x="272" y="733" type="curve" smooth="yes"/>
      <point x="272" y="697"/>
      <point x="293" y="674"/>
      <point x="327" y="674" type="curve" smooth="yes"/>
      <point x="361" y="674"/>
      <point x="382" y="697"/>
    </contour>
  </outline>
</glyph>
<glyph name="ogonek" format="1">
  <advance width="500"/>
  <unicode hex="02DB"/>
  <outline>
    <contour>
      <point x="313" y="-155" type="line"/>
      <point x="281" y="-174"/>
      <point x="228" y="-193"/>
      <point x="176" y="-193" type="curve" smooth="yes"/>
      <point x="113" y="-193"/>
      <point x="75" y="-162"/>
      <point x="75" y="-117" type="curve" smooth="yes"/>
      <point x="75" y="-76"/>
      <point x="106" y="-38"/>
      <point x="161" y="0" type="curve"/>
      <point x="230" y="0" type="line"/>
      <point x="202" y="-35"/>
      <point x="181" y="-77"/>
      <point x="181" y="-98" type="curve" smooth="yes"/>
      <point x="181" y="-116"/>
      <point x="194" y="-127"/>
      <point x="222" y="-127" type="curve" smooth="yes"/>
      <point x="245" y="-127"/>
      <point x="272" y="-124"/>
      <point x="304" y="-113" type="curve"/>
    </contour>
  </outline>
</glyph>
<glyph name="tilde" format="1">
  <advance width="500"/>
  <unicode hex="02DC"/>
  <outline>
    <contour>
      <point x="548" y="749" type="line"/>
      <point x="533" y="660"/>
      <point x="481" y="592"/>
      <point x="400" y="592" type="curve" smooth="yes"/>
      <point x="367" y="592"/>
      <point x="337" y="604"/>
      <point x="313" y="616" type="curve" smooth="yes"/>
      <point x="284" y="630"/>
      <point x="261" y="646"/>
      <point x="244" y="646" type="curve" smooth="yes"/>
      <point x="222" y="646"/>
      <point x="214" y="630"/>
      <point x="203" y="595" type="curve"/>
      <point x="100" y="595" type="line"/>
      <point x="116" y="684"/>
      <point x="173" y="752"/>
      <point x="254" y="752" type="curve" smooth="yes"/>
      <point x="288" y="752"/>
      <point x="316" y="740"/>
      <point x="339" y="728" type="curve" smooth="yes"/>
      <point x="366" y="713"/>
      <point x="387" y="698"/>
      <point x="404" y="698" type="curve" smooth="yes"/>
      <point x="426" y="698"/>
      <point x="436" y="716"/>
      <point x="445" y="749" type="curve"/>
    </contour>
  </outline>
</glyph>
<glyph name="hungarumlaut" format="1">
  <advance width="500"/>
  <unicode hex="02DD"/>
  <outline>
    <contour>
      <point x="597" y="755" type="line"/>
      <point x="422" y="595" type="line"/>
      <point x="299" y="595" type="line"/>
      <point x="404" y="755" type="line"/>
    </contour>
    <contour>
      <point x="372" y="755" type="line"/>
      <point x="197" y="595" type="line"/>
      <point x="74" y="595" type="line"/>
      <point x="179" y="755" type="line"/>
    </contour>
  </outline>
</glyph>
<glyph name="endash" format="1">
  <advance width="556"/>
  <unicode hex="2013"/>
  <outline>
    <contour>
      <point x="489" y="268" type="line"/>
      <point x="69" y="268" type="line"/>
      <point x="101" y="448" type="line"/>
      <point x="521" y="448" type="line"/>
    </contour>
  </outline>
</glyph>
<glyph name="emdash" format="1">
  <advance width="656"/>
  <unicode hex="2014"/>
  <outline>
    <contour>
      <point x="590" y="268" type="line"/>
      <point x="70" y="268" type="line"/>
      <point x="101" y="448" type="line"/>
      <point x="621" y="448" type="line"/>
    </contour>
  </outline>
</glyph>
<glyph name="quoteleft" format="1">
  <advance width="324"/>
  <unicode hex="2018"/>
  <unicode hex="02BB"/>
  <outline>
    <contour>
      <point x="338" y="700" type="line"/>
      <point x="268" y="382" type="line"/>
      <point x="63" y="382" type="line"/>
      <point x="215" y="700" type="line"/>
    </contour>
  </outline>
</glyph>
<glyph name="quoteright" format="1">
  <advance width="324"/>
  <unicode hex="2019"/>
  <unicode hex="02BC"/>
  <outline>
    <contour>
      <point x="361" y="700" type="line"/>
      <point x="209" y="382" type="line"/>
      <point x="86" y="382" type="line"/>
      <point x="156" y="700" type="line"/>
    </contour>
  </outline>
</glyph>
<glyph name="quotesinglbase" format="1">
  <advance width="324"/>
  <unicode hex="201A"/>
  <outline>
    <contour>
      <point x="271" y="209" type="line"/>
      <point x="119" y="-109" type="line"/>
      <point x="-4" y="-109" type="line"/>
      <point x="66" y="209" type="line"/>
    </contour>
  </outline>
</glyph>
<glyph name="quotedblleft" format="1">
  <advance width="608"/>
  <unicode hex="201C"/>
  <outline>
    <contour>
      <point x="621" y="700" type="line"/>
      <point x="551" y="382" type="line"/>
      <point x="346" y="382" type="line"/>
      <point x="498" y="700" type="line"/>
    </contour>
    <contour>
      <point x="337" y="700" type="line"/>
      <point x="267" y="382" type="line"/>
      <point x="62" y="382" type="line"/>
      <point x="214" y="700" type="line"/>
    </contour>
  </outline>
</glyph>
<glyph name="quotedblright" format="1">
  <advance width="608"/>
  <unicode hex="201D"/>
  <outline>
    <contour>
      <point x="644" y="700" type="line"/>
      <point x="492" y="382" type="line"/>
      <point x="369" y="382" type="line"/>
      <point x="439" y="700" type="line"/>
    </contour>
    <contour>
      <point x="360" y="700" type="line"/>
      <point x="208" y="382" type="line"/>
      <point x="85" y="382" type="line"/>
      <point x="155" y="700" type="line"/>
    </contour>
  </outline>
</glyph>
<glyph name="quotedblbase" format="1">
  <advance width="608"/>
  <unicode hex="201E"/>
  <outline>
    <contour>
      <point x="555" y="209" type="line"/>
      <point x="403" y="-109" type="line"/>
      <point x="280" y="-109" type="line"/>
      <point x="350" y="209" type="line"/>
    </contour>
    <contour>
      <point x="271" y="209" type="line"/>
      <point x="119" y="-109" type="line"/>
      <point x="-4" y="-109" type="line"/>
      <point x="66" y="209" type="line"/>
    </contour>
  </outline>
</glyph>
<glyph name="dagger" format="1">
  <advance width="590"/>
  <unicode hex="2020"/>
  <outline>
    <contour>
      <point x="550" y="349" type="line"/>
      <point x="399" y="349" type="line"/>
      <point x="320" y="-100" type="line"/>
      <point x="142" y="-100" type="line"/>
      <point x="221" y="349" type="line"/>
      <point x="70" y="349" type="line"/>
      <point x="99" y="514" type="line"/>
      <point x="250" y="514" type="line"/>
      <point x="283" y="700" type="line"/>
      <point x="461" y="700" type="line"/>
      <point x="428" y="514" type="line"/>
      <point x="579" y="514" type="line"/>
    </contour>
  </outline>
</glyph>
<glyph name="daggerdbl" format="1">
  <advance width="590"/>
  <unicode hex="2021"/>
  <outline>
    <contour>
      <point x="503" y="86" type="line"/>
      <point x="349" y="86" type="line"/>
      <point x="316" y="-100" type="line"/>
      <point x="144" y="-100" type="line"/>
      <point x="177" y="86" type="line"/>
      <point x="23" y="86" type="line"/>
      <point x="51" y="241" type="line"/>
      <point x="205" y="241" type="line"/>
      <point x="225" y="359" type="line"/>
      <point x="71" y="359" type="line"/>
      <point x="99" y="514" type="line"/>
      <point x="253" y="514" type="line"/>
      <point x="286" y="700" type="line"/>
      <point x="460" y="700" type="line"/>
      <point x="425" y="514" type="line"/>
      <point x="579" y="514" type="line"/>
      <point x="551" y="359" type="line"/>
      <point x="397" y="359" type="line"/>
      <point x="377" y="241" type="line"/>
      <point x="531" y="241" type="line"/>
    </contour>
  </outline>
</glyph>
<glyph name="ellipsis" format="1">
  <advance width="942"/>
  <unicode hex="2026"/>
  <outline>
    <contour>
      <point x="871" y="104" type="curve" smooth="yes"/>
      <point x="871" y="38"/>
      <point x="822" y="-11"/>
      <point x="756" y="-11" type="curve" smooth="yes"/>
      <point x="690" y="-11"/>
      <point x="641" y="38"/>
      <point x="641" y="104" type="curve" smooth="yes"/>
      <point x="641" y="170"/>
      <point x="690" y="217"/>
      <point x="756" y="217" type="curve" smooth="yes"/>
      <point x="822" y="217"/>
      <point x="871" y="170"/>
    </contour>
    <contour>
      <point x="557" y="104" type="curve" smooth="yes"/>
      <point x="557" y="38"/>
      <point x="508" y="-11"/>
      <point x="442" y="-11" type="curve" smooth="yes"/>
      <point x="376" y="-11"/>
      <point x="327" y="38"/>
      <point x="327" y="104" type="curve" smooth="yes"/>
      <point x="327" y="170"/>
      <point x="376" y="217"/>
      <point x="442" y="217" type="curve" smooth="yes"/>
      <point x="508" y="217"/>
      <point x="557" y="170"/>
    </contour>
    <contour>
      <point x="243" y="104" type="curve" smooth="yes"/>
      <point x="243" y="38"/>
      <point x="194" y="-11"/>
      <point x="128" y="-11" type="curve" smooth="yes"/>
      <point x="62" y="-11"/>
      <point x="13" y="38"/>
      <point x="13" y="104" type="curve" smooth="yes"/>
      <point x="13" y="170"/>
      <point x="62" y="217"/>
      <point x="128" y="217" type="curve" smooth="yes"/>
      <point x="194" y="217"/>
      <point x="243" y="170"/>
    </contour>
  </outline>
</glyph>
<glyph name="perthousand" format="1">
  <advance width="1527"/>
  <unicode hex="2030"/>
  <outline>
    <contour>
      <point x="301" y="711" type="curve" smooth="yes"/>
      <point x="419" y="711"/>
      <point x="490" y="640"/>
      <point x="490" y="537" type="curve" smooth="yes"/>
      <point x="490" y="367"/>
      <point x="373" y="275"/>
      <point x="255" y="275" type="curve" smooth="yes"/>
      <point x="137" y="275"/>
      <point x="66" y="346"/>
      <point x="66" y="449" type="curve" smooth="yes"/>
      <point x="66" y="619"/>
      <point x="183" y="711"/>
    </contour>
    <contour>
      <point x="907" y="700" type="line"/>
      <point x="354" y="0" type="line"/>
      <point x="201" y="0" type="line"/>
      <point x="754" y="700" type="line"/>
    </contour>
    <contour>
      <point x="1312" y="425" type="curve" smooth="yes"/>
      <point x="1430" y="425"/>
      <point x="1501" y="354"/>
      <point x="1501" y="251" type="curve" smooth="yes"/>
      <point x="1501" y="81"/>
      <point x="1384" y="-11"/>
      <point x="1266" y="-11" type="curve" smooth="yes"/>
      <point x="1148" y="-11"/>
      <point x="1077" y="60"/>
      <point x="1077" y="163" type="curve" smooth="yes"/>
      <point x="1077" y="333"/>
      <point x="1194" y="425"/>
    </contour>
    <contour>
      <point x="852" y="425" type="curve" smooth="yes"/>
      <point x="970" y="425"/>
      <point x="1041" y="354"/>
      <point x="1041" y="251" type="curve" smooth="yes"/>
      <point x="1041" y="81"/>
      <point x="924" y="-11"/>
      <point x="806" y="-11" type="curve" smooth="yes"/>
      <point x="688" y="-11"/>
      <point x="617" y="60"/>
      <point x="617" y="163" type="curve" smooth="yes"/>
      <point x="617" y="333"/>
      <point x="734" y="425"/>
    </contour>
    <contour>
      <point x="293" y="602" type="curve" smooth="yes"/>
      <point x="256" y="602"/>
      <point x="214" y="560"/>
      <point x="214" y="446" type="curve" smooth="yes"/>
      <point x="214" y="410"/>
      <point x="227" y="384"/>
      <point x="263" y="384" type="curve" smooth="yes"/>
      <point x="300" y="384"/>
      <point x="342" y="426"/>
      <point x="342" y="540" type="curve" smooth="yes"/>
      <point x="342" y="576"/>
      <point x="329" y="602"/>
    </contour>
    <contour>
      <point x="1304" y="316" type="curve" smooth="yes"/>
      <point x="1267" y="316"/>
      <point x="1225" y="274"/>
      <point x="1225" y="160" type="curve" smooth="yes"/>
      <point x="1225" y="124"/>
      <point x="1238" y="98"/>
      <point x="1274" y="98" type="curve" smooth="yes"/>
      <point x="1311" y="98"/>
      <point x="1353" y="140"/>
      <point x="1353" y="254" type="curve" smooth="yes"/>
      <point x="1353" y="290"/>
      <point x="1340" y="316"/>
    </contour>
    <contour>
      <point x="844" y="316" type="curve" smooth="yes"/>
      <point x="807" y="316"/>
      <point x="765" y="274"/>
      <point x="765" y="160" type="curve" smooth="yes"/>
      <point x="765" y="124"/>
      <point x="778" y="98"/>
      <point x="814" y="98" type="curve" smooth="yes"/>
      <point x="851" y="98"/>
      <point x="893" y="140"/>
      <point x="893" y="254" type="curve" smooth="yes"/>
      <point x="893" y="290"/>
      <point x="880" y="316"/>
    </contour>
  </outline>
</glyph>
<glyph name="guilsinglleft" format="1">
  <advance width="393"/>
  <unicode hex="2039"/>
  <outline>
    <contour>
      <point x="306" y="0" type="line"/>
      <point x="111" y="0" type="line"/>
      <point x="30" y="262" type="line"/>
      <point x="203" y="525" type="line"/>
      <point x="398" y="525" type="line"/>
      <point x="221" y="263" type="line"/>
    </contour>
  </outline>
</glyph>
<glyph name="guilsinglright" format="1">
  <advance width="393"/>
  <unicode hex="203A"/>
  <outline>
    <contour>
      <point x="363" y="263" type="line"/>
      <point x="190" y="0" type="line"/>
      <point x="-5" y="0" type="line"/>
      <point x="172" y="262" type="line"/>
      <point x="87" y="525" type="line"/>
      <point x="282" y="525" type="line"/>
    </contour>
  </outline>
</glyph>
<glyph name="fraction" format="1">
  <advance width="526"/>
  <unicode hex="2044"/>
  <outline>
    <contour>
      <point x="669" y="700" type="line"/>
      <point x="106" y="0" type="line"/>
      <point x="-111" y="0" type="line"/>
      <point x="452" y="700" type="line"/>
    </contour>
  </outline>
</glyph>
<glyph name="Euro" format="1">
  <advance width="672"/>
  <unicode hex="20AC"/>
  <outline>
    <contour>
      <point x="250" y="370" type="line"/>
      <point x="248" y="356"/>
      <point x="246" y="341"/>
      <point x="245" y="325" type="curve"/>
      <point x="413" y="325" type="line"/>
      <point x="396" y="230" type="line"/>
      <point x="251" y="230" type="line"/>
      <point x="264" y="181"/>
      <point x="297" y="153"/>
      <point x="346" y="153" type="curve" smooth="yes"/>
      <point x="406" y="153"/>
      <point x="440" y="201"/>
      <point x="471" y="247" type="curve"/>
      <point x="629" y="155" type="line"/>
      <point x="576" y="77"/>
      <point x="494" y="-11"/>
      <point x="335" y="-11" type="curve" smooth="yes"/>
      <point x="147" y="-11"/>
      <point x="49" y="106"/>
      <point x="49" y="283" type="curve" smooth="yes"/>
      <point x="49" y="508"/>
      <point x="186" y="711"/>
      <point x="406" y="711" type="curve" smooth="yes"/>
      <point x="578" y="711"/>
      <point x="656" y="631"/>
      <point x="678" y="485" type="curve"/>
      <point x="491" y="434" type="line"/>
      <point x="479" y="499"/>
      <point x="463" y="547"/>
      <point x="399" y="547" type="curve" smooth="yes"/>
      <point x="351" y="547"/>
      <point x="309" y="517"/>
      <point x="281" y="465" type="curve"/>
      <point x="438" y="465" type="line"/>
      <point x="421" y="370" type="line"/>
    </contour>
  </outline>
</glyph>
<glyph name="uni2117" format="1">
  <advance width="836"/>
  <unicode hex="2117"/>
  <outline>
    <contour>
      <point x="800" y="350" type="curve" smooth="yes"/>
      <point x="800" y="145"/>
      <point x="644" y="-11"/>
      <point x="439" y="-11" type="curve" smooth="yes"/>
      <point x="234" y="-11"/>
      <point x="78" y="145"/>
      <point x="78" y="350" type="curve" smooth="yes"/>
      <point x="78" y="555"/>
      <point x="234" y="711"/>
      <point x="439" y="711" type="curve" smooth="yes"/>
      <point x="644" y="711"/>
      <point x="800" y="555"/>
    </contour>
    <contour>
      <point x="726" y="350" type="curve" smooth="yes"/>
      <point x="726" y="524"/>
      <point x="603" y="640"/>
      <point x="439" y="640" type="curve" smooth="yes"/>
      <point x="275" y="640"/>
      <point x="152" y="524"/>
      <point x="152" y="350" type="curve" smooth="yes"/>
      <point x="152" y="176"/>
      <point x="275" y="60"/>
      <point x="439" y="60" type="curve" smooth="yes"/>
      <point x="603" y="60"/>
      <point x="726" y="176"/>
    </contour>
    <contour>
      <point x="624" y="416" type="curve" smooth="yes"/>
      <point x="624" y="316"/>
      <point x="558" y="281"/>
      <point x="464" y="281" type="curve" smooth="yes"/>
      <point x="410" y="281" type="line"/>
      <point x="410" y="154" type="line"/>
      <point x="303" y="154" type="line"/>
      <point x="303" y="546" type="line"/>
      <point x="472" y="546" type="line" smooth="yes"/>
      <point x="563" y="546"/>
      <point x="624" y="511"/>
    </contour>
    <contour>
      <point x="516" y="414" type="curve" smooth="yes"/>
      <point x="516" y="440"/>
      <point x="504" y="457"/>
      <point x="469" y="457" type="curve" smooth="yes"/>
      <point x="410" y="457" type="line"/>
      <point x="410" y="369" type="line"/>
      <point x="467" y="369" type="line" smooth="yes"/>
      <point x="502" y="369"/>
      <point x="516" y="385"/>
    </contour>
  </outline>
</glyph>
<glyph name="trademark" format="1">
  <advance width="839"/>
  <unicode hex="2122"/>
  <outline>
    <contour>
      <point x="414" y="606" type="line"/>
      <point x="305" y="606" type="line"/>
      <point x="252" y="308" type="line"/>
      <point x="143" y="308" type="line"/>
      <point x="196" y="606" type="line"/>
      <point x="86" y="606" type="line"/>
      <point x="102" y="700" type="line"/>
      <point x="430" y="700" type="line"/>
    </contour>
    <contour>
      <point x="816" y="308" type="line"/>
      <point x="714" y="308" type="line"/>
      <point x="731" y="402" type="line" smooth="yes"/>
      <point x="738" y="439"/>
      <point x="744" y="476"/>
      <point x="751" y="506" type="curve"/>
      <point x="734" y="477"/>
      <point x="706" y="431"/>
      <point x="688" y="403" type="curve" smooth="yes"/>
      <point x="617" y="295" type="line"/>
      <point x="585" y="403" type="line" smooth="yes"/>
      <point x="577" y="431"/>
      <point x="564" y="477"/>
      <point x="557" y="506" type="curve"/>
      <point x="554" y="476"/>
      <point x="548" y="439"/>
      <point x="541" y="402" type="curve" smooth="yes"/>
      <point x="524" y="308" type="line"/>
      <point x="423" y="308" type="line"/>
      <point x="492" y="700" type="line"/>
      <point x="589" y="700" type="line"/>
      <point x="619" y="596" type="line" smooth="yes"/>
      <point x="634" y="545"/>
      <point x="646" y="499"/>
      <point x="648" y="477" type="curve"/>
      <point x="658" y="500"/>
      <point x="684" y="542"/>
      <point x="718" y="596" type="curve" smooth="yes"/>
      <point x="784" y="700" type="line"/>
      <point x="885" y="700" type="line"/>
    </contour>
  </outline>
</glyph>
<glyph name="arrowleft" format="1">
  <advance width="660"/>
  <unicode hex="2190"/>
  <outline>
    <contour>
      <point x="615" y="274" type="line"/>
      <point x="256" y="274" type="line"/>
      <point x="265" y="228" type="line" smooth="yes"/>
      <point x="270" y="201"/>
      <point x="268" y="189"/>
      <point x="253" y="178" type="curve" smooth="yes"/>
      <point x="242" y="170"/>
      <point x="225" y="170"/>
      <point x="207" y="186" type="curve" smooth="yes"/>
      <point x="15" y="354" type="line"/>
      <point x="207" y="522" type="line" smooth="yes"/>
      <point x="225" y="538"/>
      <point x="242" y="538"/>
      <point x="253" y="530" type="curve" smooth="yes"/>
      <point x="268" y="519"/>
      <point x="270" y="508"/>
      <point x="265" y="480" type="curve" smooth="yes"/>
      <point x="256" y="434" type="line"/>
      <point x="615" y="434" type="line"/>
    </contour>
  </outline>
</glyph>
<glyph name="arrowdown" format="1">
  <advance width="450"/>
  <unicode hex="2193"/>
  <outline>
    <contour>
      <point x="401" y="213" type="curve" smooth="yes"/>
      <point x="409" y="202"/>
      <point x="409" y="185"/>
      <point x="393" y="167" type="curve" smooth="yes"/>
      <point x="225" y="-25" type="line"/>
      <point x="57" y="167" type="line" smooth="yes"/>
      <point x="41" y="185"/>
      <point x="41" y="202"/>
      <point x="49" y="213" type="curve" smooth="yes"/>
      <point x="60" y="228"/>
      <point x="71" y="230"/>
      <point x="99" y="225" type="curve" smooth="yes"/>
      <point x="145" y="216" type="line"/>
      <point x="145" y="700" type="line"/>
      <point x="305" y="700" type="line"/>
      <point x="305" y="216" type="line"/>
      <point x="351" y="225" type="line" smooth="yes"/>
      <point x="378" y="230"/>
      <point x="390" y="228"/>
    </contour>
  </outline>
</glyph>
<glyph name="arrowboth" format="1">
  <advance width="820"/>
  <unicode hex="2194"/>
  <outline>
    <contour>
      <point x="805" y="354" type="line"/>
      <point x="613" y="186" type="line" smooth="yes"/>
      <point x="595" y="170"/>
      <point x="578" y="170"/>
      <point x="567" y="178" type="curve" smooth="yes"/>
      <point x="552" y="189"/>
      <point x="550" y="201"/>
      <point x="555" y="228" type="curve" smooth="yes"/>
      <point x="564" y="274" type="line"/>
      <point x="256" y="274" type="line"/>
      <point x="265" y="228" type="line" smooth="yes"/>
      <point x="270" y="201"/>
      <point x="268" y="189"/>
      <point x="253" y="178" type="curve" smooth="yes"/>
      <point x="242" y="170"/>
      <point x="225" y="170"/>
      <point x="207" y="186" type="curve" smooth="yes"/>
      <point x="15" y="354" type="line"/>
      <point x="207" y="522" type="line" smooth="yes"/>
      <point x="225" y="538"/>
      <point x="242" y="538"/>
      <point x="253" y="530" type="curve" smooth="yes"/>
      <point x="268" y="519"/>
      <point x="270" y="508"/>
      <point x="265" y="480" type="curve" smooth="yes"/>
      <point x="256" y="434" type="line"/>
      <point x="564" y="434" type="line"/>
      <point x="555" y="480" type="line" smooth="yes"/>
      <point x="550" y="508"/>
      <point x="552" y="519"/>
      <point x="567" y="530" type="curve" smooth="yes"/>
      <point x="578" y="538"/>
      <point x="595" y="538"/>
      <point x="613" y="522" type="curve" smooth="yes"/>
    </contour>
  </outline>
</glyph>
<glyph name="radical" format="1">
  <advance width="702"/>
  <unicode hex="221A"/>
  <outline>
    <contour>
      <point x="744" y="700" type="line"/>
      <point x="359" y="0" type="line"/>
      <point x="174" y="0" type="line"/>
      <point x="52" y="340" type="line"/>
      <point x="242" y="340" type="line"/>
      <point x="257" y="287" type="line" smooth="yes"/>
      <point x="273" y="229"/>
      <point x="288" y="180"/>
      <point x="289" y="143" type="curve"/>
      <point x="302" y="180"/>
      <point x="325" y="238"/>
      <point x="351" y="291" type="curve" smooth="yes"/>
      <point x="551" y="700" type="line"/>
    </contour>
  </outline>
</glyph>
<glyph name="fi" format="1">
  <advance width="680"/>
  <unicode hex="FB01"/>
  <outline>
    <contour>
      <point x="493" y="644" type="curve" smooth="yes"/>
      <point x="493" y="699"/>
      <point x="541" y="738"/>
      <point x="602" y="738" type="curve" smooth="yes"/>
      <point x="664" y="738"/>
      <point x="703" y="706"/>
      <point x="703" y="658" type="curve" smooth="yes"/>
      <point x="703" y="603"/>
      <point x="655" y="564"/>
      <point x="594" y="564" type="curve" smooth="yes"/>
      <point x="532" y="564"/>
      <point x="493" y="596"/>
    </contour>
    <contour>
      <point x="407" y="588" type="line"/>
      <point x="393" y="595"/>
      <point x="373" y="599"/>
      <point x="354" y="599" type="curve" smooth="yes"/>
      <point x="332" y="599"/>
      <point x="324" y="592"/>
      <point x="318" y="559" type="curve" smooth="yes"/>
      <point x="312" y="525" type="line"/>
      <point x="388" y="525" type="line"/>
      <point x="363" y="384" type="line"/>
      <point x="290" y="384" type="line"/>
      <point x="223" y="0" type="line"/>
      <point x="46" y="0" type="line"/>
      <point x="113" y="384" type="line"/>
      <point x="57" y="384" type="line"/>
      <point x="82" y="525" type="line"/>
      <point x="138" y="525" type="line"/>
      <point x="149" y="586" type="line" smooth="yes"/>
      <point x="166" y="681"/>
      <point x="202" y="726"/>
      <point x="304" y="726" type="curve" smooth="yes"/>
      <point x="351" y="726"/>
      <point x="403" y="712"/>
      <point x="427" y="698" type="curve"/>
    </contour>
    <contour>
      <point x="572" y="0" type="line"/>
      <point x="392" y="0" type="line"/>
      <point x="485" y="525" type="line"/>
      <point x="665" y="525" type="line"/>
    </contour>
  </outline>
</glyph>
<glyph name="fl" format="1">
  <advance width="680"/>
  <unicode hex="FB02"/>
  <outline>
    <contour>
      <point x="573" y="0" type="line"/>
      <point x="393" y="0" type="line"/>
      <point x="509" y="657" type="line"/>
      <point x="702" y="729" type="line"/>
    </contour>
    <contour>
      <point x="407" y="588" type="line"/>
      <point x="393" y="595"/>
      <point x="373" y="599"/>
      <point x="354" y="599" type="curve" smooth="yes"/>
      <point x="332" y="599"/>
      <point x="324" y="592"/>
      <point x="318" y="559" type="curve" smooth="yes"/>
      <point x="312" y="525" type="line"/>
      <point x="388" y="525" type="line"/>
      <point x="363" y="384" type="line"/>
      <point x="290" y="384" type="line"/>
      <point x="223" y="0" type="line"/>
      <point x="46" y="0" type="line"/>
      <point x="113" y="384" type="line"/>
      <point x="57" y="384" type="line"/>
      <point x="82" y="525" type="line"/>
      <point x="138" y="525" type="line"/>
      <point x="149" y="586" type="line" smooth="yes"/>
      <point x="166" y="681"/>
      <point x="202" y="726"/>
      <point x="304" y="726" type="curve" smooth="yes"/>
      <point x="351" y="726"/>
      <point x="403" y="712"/>
      <point x="427" y="698" type="curve"/>
    </contour>
  </outline>
</glyph>
<glyph name="a.salt" format="1">
  <advance width="568"/>
  <outline>
    <contour>
      <point x="26" y="171" type="curve" smooth="yes"/>
      <point x="26" y="387"/>
      <point x="115" y="537"/>
      <point x="246" y="537" type="curve" smooth="yes"/>
      <point x="298" y="537"/>
      <point x="346" y="513"/>
      <point x="371" y="491" type="curve"/>
      <point x="377" y="525" type="line"/>
      <point x="558" y="525" type="line"/>
      <point x="465" y="1" type="line"/>
      <point x="285" y="1" type="line"/>
      <point x="291" y="38" type="line"/>
      <point x="267" y="19"/>
      <point x="228" y="-10"/>
      <point x="175" y="-10" type="curve" smooth="yes"/>
      <point x="81" y="-10"/>
      <point x="26" y="52"/>
    </contour>
    <contour>
      <point x="207" y="201" type="curve" smooth="yes"/>
      <point x="207" y="158"/>
      <point x="218" y="138"/>
      <point x="250" y="138" type="curve" smooth="yes"/>
      <point x="273" y="138"/>
      <point x="301" y="153"/>
      <point x="313" y="163" type="curve"/>
      <point x="349" y="362" type="line"/>
      <point x="332" y="377"/>
      <point x="315" y="389"/>
      <point x="286" y="389" type="curve" smooth="yes"/>
      <point x="242" y="389"/>
      <point x="207" y="312"/>
    </contour>
  </outline>
</glyph>
<glyph name="bullet" format="1">
  <advance width="589"/>
  <outline>
    <contour>
      <point x="539" y="366" type="curve" smooth="yes"/>
      <point x="539" y="237"/>
      <point x="439" y="137"/>
      <point x="309" y="137" type="curve" smooth="yes"/>
      <point x="180" y="137"/>
      <point x="80" y="237"/>
      <point x="80" y="366" type="curve" smooth="yes"/>
      <point x="80" y="495"/>
      <point x="180" y="597"/>
      <point x="309" y="597" type="curve" smooth="yes"/>
      <point x="439" y="597"/>
      <point x="539" y="495"/>
    </contour>
  </outline>
</glyph>
<glyph name="macron" format="1">
  <advance width="500"/>
  <outline>
    <contour>
      <point x="474" y="610" type="line"/>
      <point x="148" y="610" type="line"/>
      <point x="168" y="725" type="line"/>
      <point x="494" y="725" type="line"/>
    </contour>
  </outline>
</glyph>
<glyph name="registered" format="1">
  <advance width="836"/>
  <outline>
    <contour>
      <point x="800" y="350" type="curve" smooth="yes"/>
      <point x="800" y="145"/>
      <point x="644" y="-11"/>
      <point x="439" y="-11" type="curve" smooth="yes"/>
      <point x="234" y="-11"/>
      <point x="78" y="145"/>
      <point x="78" y="350" type="curve" smooth="yes"/>
      <point x="78" y="555"/>
      <point x="234" y="711"/>
      <point x="439" y="711" type="curve" smooth="yes"/>
      <point x="644" y="711"/>
      <point x="800" y="555"/>
    </contour>
    <contour>
      <point x="726" y="350" type="curve" smooth="yes"/>
      <point x="726" y="524"/>
      <point x="603" y="640"/>
      <point x="439" y="640" type="curve" smooth="yes"/>
      <point x="275" y="640"/>
      <point x="152" y="524"/>
      <point x="152" y="350" type="curve" smooth="yes"/>
      <point x="152" y="176"/>
      <point x="275" y="60"/>
      <point x="439" y="60" type="curve" smooth="yes"/>
      <point x="603" y="60"/>
      <point x="726" y="176"/>
    </contour>
    <contour>
      <point x="624" y="163" type="line"/>
      <point x="503" y="163" type="line"/>
      <point x="439" y="295" type="line"/>
      <point x="395" y="295" type="line"/>
      <point x="395" y="163" type="line"/>
      <point x="288" y="163" type="line"/>
      <point x="288" y="555" type="line"/>
      <point x="464" y="555" type="line" smooth="yes"/>
      <point x="556" y="555"/>
      <point x="617" y="520"/>
      <point x="617" y="427" type="curve" smooth="yes"/>
      <point x="617" y="368"/>
      <point x="589" y="332"/>
      <point x="546" y="312" type="curve"/>
    </contour>
    <contour>
      <point x="509" y="424" type="curve" smooth="yes"/>
      <point x="509" y="449"/>
      <point x="495" y="466"/>
      <point x="461" y="466" type="curve" smooth="yes"/>
      <point x="395" y="466" type="line"/>
      <point x="395" y="381" type="line"/>
      <point x="459" y="381" type="line" smooth="yes"/>
      <point x="495" y="381"/>
      <point x="509" y="396"/>
    </contour>
  </outline>
</glyph>
